<?xml version="1.0" encoding="utf-8" standalone="no"?>
<!DOCTYPE svg PUBLIC "-//W3C//DTD SVG 1.1//EN"
  "http://www.w3.org/Graphics/SVG/1.1/DTD/svg11.dtd">
<svg xmlns:xlink="http://www.w3.org/1999/xlink" width="551.28pt" height="569.4375pt" viewBox="0 0 551.28 569.4375" xmlns="http://www.w3.org/2000/svg" version="1.1">
 <metadata>
  <rdf:RDF xmlns:dc="http://purl.org/dc/elements/1.1/" xmlns:cc="http://creativecommons.org/ns#" xmlns:rdf="http://www.w3.org/1999/02/22-rdf-syntax-ns#">
   <cc:Work>
    <dc:type rdf:resource="http://purl.org/dc/dcmitype/StillImage"/>
    <dc:date>2026-06-03T10:18:26.123461</dc:date>
    <dc:format>image/svg+xml</dc:format>
    <dc:creator>
     <cc:Agent>
      <dc:title>Matplotlib v3.10.8, https://matplotlib.org/</dc:title>
     </cc:Agent>
    </dc:creator>
   </cc:Work>
  </rdf:RDF>
 </metadata>
 <defs>
  <style type="text/css">*{stroke-linejoin: round; stroke-linecap: butt}</style>
 </defs>
 <g id="figure_1">
  <g id="patch_1">
   <path d="M 0 569.4375 
L 551.28 569.4375 
L 551.28 0 
L 0 0 
z
" style="fill: #ffffff"/>
  </g>
  <g id="axes_1">
   <g id="line2d_1">
    <path d="M 7.2 562.2375 
L 7.2 25.3575 
" clip-path="url(#p33ac6dcd35)" style="fill: none; stroke: #e0e0e0; stroke-linecap: square"/>
   </g>
   <g id="line2d_2">
    <path d="M 7.2 562.2375 
L 544.08 562.2375 
" clip-path="url(#p33ac6dcd35)" style="fill: none; stroke: #e0e0e0; stroke-linecap: square"/>
   </g>
   <g id="line2d_3">
    <path d="M 114.576 562.2375 
L 114.576 25.3575 
" clip-path="url(#p33ac6dcd35)" style="fill: none; stroke: #e0e0e0; stroke-linecap: square"/>
   </g>
   <g id="line2d_4">
    <path d="M 7.2 454.8615 
L 544.08 454.8615 
" clip-path="url(#p33ac6dcd35)" style="fill: none; stroke: #e0e0e0; stroke-linecap: square"/>
   </g>
   <g id="line2d_5">
    <path d="M 221.952 562.2375 
L 221.952 25.3575 
" clip-path="url(#p33ac6dcd35)" style="fill: none; stroke: #e0e0e0; stroke-linecap: square"/>
   </g>
   <g id="line2d_6">
    <path d="M 7.2 347.4855 
L 544.08 347.4855 
" clip-path="url(#p33ac6dcd35)" style="fill: none; stroke: #e0e0e0; stroke-linecap: square"/>
   </g>
   <g id="line2d_7">
    <path d="M 329.328 562.2375 
L 329.328 25.3575 
" clip-path="url(#p33ac6dcd35)" style="fill: none; stroke: #e0e0e0; stroke-linecap: square"/>
   </g>
   <g id="line2d_8">
    <path d="M 7.2 240.1095 
L 544.08 240.1095 
" clip-path="url(#p33ac6dcd35)" style="fill: none; stroke: #e0e0e0; stroke-linecap: square"/>
   </g>
   <g id="line2d_9">
    <path d="M 436.704 562.2375 
L 436.704 25.3575 
" clip-path="url(#p33ac6dcd35)" style="fill: none; stroke: #e0e0e0; stroke-linecap: square"/>
   </g>
   <g id="line2d_10">
    <path d="M 7.2 132.7335 
L 544.08 132.7335 
" clip-path="url(#p33ac6dcd35)" style="fill: none; stroke: #e0e0e0; stroke-linecap: square"/>
   </g>
   <g id="line2d_11">
    <path d="M 544.08 562.2375 
L 544.08 25.3575 
" clip-path="url(#p33ac6dcd35)" style="fill: none; stroke: #e0e0e0; stroke-linecap: square"/>
   </g>
   <g id="line2d_12">
    <path d="M 7.2 25.3575 
L 544.08 25.3575 
" clip-path="url(#p33ac6dcd35)" style="fill: none; stroke: #e0e0e0; stroke-linecap: square"/>
   </g>
   <g id="FillBetweenPolyCollection_1">
    <defs>
     <path id="m607240f497" d="M 302.484 -7.2 
L 302.484 -7.2 
L 302.446832 -7.2 
L 302.335337 -7.2 
L 302.149543 -7.2 
L 301.889498 -7.2 
L 301.555266 -7.2 
L 301.146931 -7.2 
L 300.664597 -7.2 
L 300.108385 -7.2 
L 299.478435 -7.2 
L 298.774905 -7.2 
L 297.997973 -7.2 
L 297.147833 -7.2 
L 296.224702 -7.2 
L 295.228809 -7.2 
L 294.160407 -7.2 
L 293.019764 -7.2 
L 291.807168 -7.2 
L 290.522923 -7.2 
L 289.167353 -7.2 
L 287.7408 -7.2 
L 286.243622 -7.2 
L 284.676196 -7.2 
L 283.038917 -7.2 
L 281.332197 -7.2 
L 279.556465 -7.2 
L 277.71217 -7.2 
L 275.799774 -7.2 
L 273.81976 -7.2 
L 271.772626 -7.2 
L 269.658887 -7.2 
L 267.479075 -7.2 
L 265.233739 -7.2 
L 262.923445 -7.2 
L 260.548774 -7.2 
L 258.110324 -7.2 
L 255.608708 -7.2 
L 253.044557 -7.2 
L 250.418516 -7.2 
L 247.731245 -7.2 
L 244.983423 -7.2 
L 242.175739 -7.2 
L 239.308902 -7.2 
L 236.383633 -7.2 
L 233.400667 -7.2 
L 230.360757 -7.2 
L 227.264668 -7.2 
L 224.113178 -7.2 
L 220.907082 -7.2 
L 217.647186 -7.2 
L 214.334311 -7.2 
L 210.969291 -7.2 
L 207.552973 -7.2 
L 204.086218 -7.2 
L 200.569897 -7.2 
L 197.004897 -7.2 
L 193.392114 -7.2 
L 189.732458 -7.2 
L 186.026851 -7.2 
L 182.276225 -7.2 
L 178.481524 -7.2 
L 174.643705 -7.2 
L 170.763732 -7.2 
L 166.842583 -7.2 
L 162.881245 -7.2 
L 158.880715 -7.2 
L 154.842 -7.2 
L 150.766117 -7.2 
L 146.654092 -7.2 
L 142.50696 -7.2 
L 138.325766 -7.2 
L 134.111561 -7.2 
L 129.865407 -7.2 
L 125.588372 -7.2 
L 121.281534 -7.2 
L 116.945977 -7.2 
L 112.582791 -7.2 
L 108.193076 -7.2 
L 103.777936 -7.2 
L 99.338484 -7.2 
L 94.875836 -7.2 
L 90.391116 -7.2 
L 85.885454 -7.2 
L 81.359982 -7.2 
L 76.815842 -7.2 
L 72.254175 -7.2 
L 67.676132 -7.2 
L 63.082864 -7.2 
L 58.475528 -7.2 
L 53.855284 -7.2 
L 49.223295 -7.2 
L 44.580726 -7.2 
L 39.928747 -7.2 
L 35.268529 -7.2 
L 30.601244 -7.2 
L 25.928069 -7.2 
L 21.250178 -7.2 
L 16.568751 -7.2 
L 11.884965 -7.2 
L 7.2 -7.2 
L 7.2 -302.484 
L 7.2 -302.484 
L 11.884965 -302.446832 
L 16.568751 -302.335337 
L 21.250178 -302.149543 
L 25.928069 -301.889498 
L 30.601244 -301.555266 
L 35.268529 -301.146931 
L 39.928747 -300.664597 
L 44.580726 -300.108385 
L 49.223295 -299.478435 
L 53.855284 -298.774905 
L 58.475528 -297.997973 
L 63.082864 -297.147833 
L 67.676132 -296.224702 
L 72.254175 -295.228809 
L 76.815842 -294.160407 
L 81.359982 -293.019764 
L 85.885454 -291.807168 
L 90.391116 -290.522923 
L 94.875836 -289.167353 
L 99.338484 -287.7408 
L 103.777936 -286.243622 
L 108.193076 -284.676196 
L 112.582791 -283.038917 
L 116.945977 -281.332197 
L 121.281534 -279.556465 
L 125.588372 -277.71217 
L 129.865407 -275.799774 
L 134.111561 -273.81976 
L 138.325766 -271.772626 
L 142.50696 -269.658887 
L 146.654092 -267.479075 
L 150.766117 -265.233739 
L 154.842 -262.923445 
L 158.880715 -260.548774 
L 162.881245 -258.110324 
L 166.842583 -255.608708 
L 170.763732 -253.044557 
L 174.643705 -250.418516 
L 178.481524 -247.731245 
L 182.276225 -244.983423 
L 186.026851 -242.175739 
L 189.732458 -239.308902 
L 193.392114 -236.383633 
L 197.004897 -233.400667 
L 200.569897 -230.360757 
L 204.086218 -227.264668 
L 207.552973 -224.113178 
L 210.969291 -220.907082 
L 214.334311 -217.647186 
L 217.647186 -214.334311 
L 220.907082 -210.969291 
L 224.113178 -207.552973 
L 227.264668 -204.086218 
L 230.360757 -200.569897 
L 233.400667 -197.004897 
L 236.383633 -193.392114 
L 239.308902 -189.732458 
L 242.175739 -186.026851 
L 244.983423 -182.276225 
L 247.731245 -178.481524 
L 250.418516 -174.643705 
L 253.044557 -170.763732 
L 255.608708 -166.842583 
L 258.110324 -162.881245 
L 260.548774 -158.880715 
L 262.923445 -154.842 
L 265.233739 -150.766117 
L 267.479075 -146.654092 
L 269.658887 -142.50696 
L 271.772626 -138.325766 
L 273.81976 -134.111561 
L 275.799774 -129.865407 
L 277.71217 -125.588372 
L 279.556465 -121.281534 
L 281.332197 -116.945977 
L 283.038917 -112.582791 
L 284.676196 -108.193076 
L 286.243622 -103.777936 
L 287.7408 -99.338484 
L 289.167353 -94.875836 
L 290.522923 -90.391116 
L 291.807168 -85.885454 
L 293.019764 -81.359982 
L 294.160407 -76.815842 
L 295.228809 -72.254175 
L 296.224702 -67.676132 
L 297.147833 -63.082864 
L 297.997973 -58.475528 
L 298.774905 -53.855284 
L 299.478435 -49.223295 
L 300.108385 -44.580726 
L 300.664597 -39.928747 
L 301.146931 -35.268529 
L 301.555266 -30.601244 
L 301.889498 -25.928069 
L 302.149543 -21.250178 
L 302.335337 -16.568751 
L 302.446832 -11.884965 
L 302.484 -7.2 
z
" style="stroke: #d3d3d3; stroke-opacity: 0.5"/>
    </defs>
    <g clip-path="url(#p33ac6dcd35)">
     <use xlink:href="#m607240f497" x="0" y="569.4375" style="fill: #d3d3d3; fill-opacity: 0.5; stroke: #d3d3d3; stroke-opacity: 0.5"/>
    </g>
   </g>
   <g id="patch_2">
    <path d="M 436.704 454.8615 
L 544.08 454.8615 
L 544.08 347.4855 
L 436.704 347.4855 
z
" clip-path="url(#p33ac6dcd35)" style="fill: #ffffcc; opacity: 0.5; stroke: #ffffcc; stroke-linejoin: miter"/>
   </g>
   <g id="patch_3">
    <path d="M 329.328 562.2375 
L 436.704 562.2375 
L 436.704 454.8615 
L 329.328 454.8615 
z
" clip-path="url(#p33ac6dcd35)" style="fill: #ffffcc; opacity: 0.5; stroke: #ffffcc; stroke-linejoin: miter"/>
   </g>
   <g id="line2d_13">
    <path d="M 302.484 562.2375 
L 302.446832 557.552535 
L 302.335337 552.868749 
L 302.149543 548.187322 
L 301.889498 543.509431 
L 301.555266 538.836256 
L 301.146931 534.168971 
L 300.664597 529.508753 
L 300.108385 524.856774 
L 299.478435 520.214205 
L 298.774905 515.582216 
L 297.997973 510.961972 
L 297.147833 506.354636 
L 296.224702 501.761368 
L 295.228809 497.183325 
L 294.160407 492.621658 
L 293.019764 488.077518 
L 291.807168 483.552046 
L 290.522923 479.046384 
L 289.167353 474.561664 
L 287.7408 470.099016 
L 286.243622 465.659564 
L 284.676196 461.244424 
L 283.038917 456.854709 
L 281.332197 452.491523 
L 279.556465 448.155966 
L 277.71217 443.849128 
L 275.799774 439.572093 
L 273.81976 435.325939 
L 271.772626 431.111734 
L 269.658887 426.93054 
L 267.479075 422.783408 
L 265.233739 418.671383 
L 262.923445 414.5955 
L 260.548774 410.556785 
L 258.110324 406.556255 
L 255.608708 402.594917 
L 253.044557 398.673768 
L 250.418516 394.793795 
L 247.731245 390.955976 
L 244.983423 387.161275 
L 242.175739 383.410649 
L 239.308902 379.705042 
L 236.383633 376.045386 
L 233.400667 372.432603 
L 230.360757 368.867603 
L 227.264668 365.351282 
L 224.113178 361.884527 
L 220.907082 358.468209 
L 217.647186 355.103189 
L 214.334311 351.790314 
L 210.969291 348.530418 
L 207.552973 345.324322 
L 204.086218 342.172832 
L 200.569897 339.076743 
L 197.004897 336.036833 
L 193.392114 333.053867 
L 189.732458 330.128598 
L 186.026851 327.261761 
L 182.276225 324.454077 
L 178.481524 321.706255 
L 174.643705 319.018984 
L 170.763732 316.392943 
L 166.842583 313.828792 
L 162.881245 311.327176 
L 158.880715 308.888726 
L 154.842 306.514055 
L 150.766117 304.203761 
L 146.654092 301.958425 
L 142.50696 299.778613 
L 138.325766 297.664874 
L 134.111561 295.61774 
L 129.865407 293.637726 
L 125.588372 291.72533 
L 121.281534 289.881035 
L 116.945977 288.105303 
L 112.582791 286.398583 
L 108.193076 284.761304 
L 103.777936 283.193878 
L 99.338484 281.6967 
L 94.875836 280.270147 
L 90.391116 278.914577 
L 85.885454 277.630332 
L 81.359982 276.417736 
L 76.815842 275.277093 
L 72.254175 274.208691 
L 67.676132 273.212798 
L 63.082864 272.289667 
L 58.475528 271.439527 
L 53.855284 270.662595 
L 49.223295 269.959065 
L 44.580726 269.329115 
L 39.928747 268.772903 
L 35.268529 268.290569 
L 30.601244 267.882234 
L 25.928069 267.548002 
L 21.250178 267.287957 
L 16.568751 267.102163 
L 11.884965 266.990668 
L 7.2 266.9535 
" clip-path="url(#p33ac6dcd35)" style="fill: none; stroke: #000000; stroke-width: 3; stroke-linecap: square"/>
   </g>
   <g id="line2d_14">
    <path d="M 221.952 562.2375 
L 221.952 454.8615 
L 114.576 454.8615 
L 114.576 347.4855 
L 7.2 347.4855 
" clip-path="url(#p33ac6dcd35)" style="fill: none; stroke-dasharray: 7.4,3.2; stroke-dashoffset: 0; stroke: #ff0000; stroke-width: 2"/>
   </g>
   <g id="patch_4">
    <path d="M 449.92259 451.556853 
L 435.599212 460.671729 
L 434.362193 455.723653 
L 222.017106 508.809925 
L 221.886894 508.289075 
L 434.23198 455.202803 
L 432.994961 450.254727 
z
" clip-path="url(#p33ac6dcd35)" style="fill: #0000ff; stroke: #0000ff; stroke-linejoin: miter"/>
   </g>
   <g id="text_1">
    <!-- Fluid Domain ($\Omega_f$) -->
    <g transform="translate(60.888 79.0455) scale(0.14 -0.14)">
     <defs>
      <path id="DejaVuSans-Bold-46" d="M 588 4666 
L 3834 4666 
L 3834 3756 
L 1791 3756 
L 1791 2888 
L 3713 2888 
L 3713 1978 
L 1791 1978 
L 1791 0 
L 588 0 
L 588 4666 
z
" transform="scale(0.015625)"/>
      <path id="DejaVuSans-Bold-6c" d="M 538 4863 
L 1656 4863 
L 1656 0 
L 538 0 
L 538 4863 
z
" transform="scale(0.015625)"/>
      <path id="DejaVuSans-Bold-75" d="M 500 1363 
L 500 3500 
L 1625 3500 
L 1625 3150 
Q 1625 2866 1622 2436 
Q 1619 2006 1619 1863 
Q 1619 1441 1641 1255 
Q 1663 1069 1716 984 
Q 1784 875 1895 815 
Q 2006 756 2150 756 
Q 2500 756 2700 1025 
Q 2900 1294 2900 1772 
L 2900 3500 
L 4019 3500 
L 4019 0 
L 2900 0 
L 2900 506 
Q 2647 200 2364 54 
Q 2081 -91 1741 -91 
Q 1134 -91 817 281 
Q 500 653 500 1363 
z
" transform="scale(0.015625)"/>
      <path id="DejaVuSans-Bold-69" d="M 538 3500 
L 1656 3500 
L 1656 0 
L 538 0 
L 538 3500 
z
M 538 4863 
L 1656 4863 
L 1656 3950 
L 538 3950 
L 538 4863 
z
" transform="scale(0.015625)"/>
      <path id="DejaVuSans-Bold-64" d="M 2919 2988 
L 2919 4863 
L 4044 4863 
L 4044 0 
L 2919 0 
L 2919 506 
Q 2688 197 2409 53 
Q 2131 -91 1766 -91 
Q 1119 -91 703 423 
Q 288 938 288 1747 
Q 288 2556 703 3070 
Q 1119 3584 1766 3584 
Q 2128 3584 2408 3439 
Q 2688 3294 2919 2988 
z
M 2181 722 
Q 2541 722 2730 984 
Q 2919 1247 2919 1747 
Q 2919 2247 2730 2509 
Q 2541 2772 2181 2772 
Q 1825 2772 1636 2509 
Q 1447 2247 1447 1747 
Q 1447 1247 1636 984 
Q 1825 722 2181 722 
z
" transform="scale(0.015625)"/>
      <path id="DejaVuSans-Bold-20" transform="scale(0.015625)"/>
      <path id="DejaVuSans-Bold-44" d="M 1791 3756 
L 1791 909 
L 2222 909 
Q 2959 909 3348 1275 
Q 3738 1641 3738 2338 
Q 3738 3031 3350 3393 
Q 2963 3756 2222 3756 
L 1791 3756 
z
M 588 4666 
L 1856 4666 
Q 2919 4666 3439 4514 
Q 3959 4363 4331 4000 
Q 4659 3684 4818 3271 
Q 4978 2859 4978 2338 
Q 4978 1809 4818 1395 
Q 4659 981 4331 666 
Q 3956 303 3431 151 
Q 2906 0 1856 0 
L 588 0 
L 588 4666 
z
" transform="scale(0.015625)"/>
      <path id="DejaVuSans-Bold-6f" d="M 2203 2784 
Q 1831 2784 1636 2517 
Q 1441 2250 1441 1747 
Q 1441 1244 1636 976 
Q 1831 709 2203 709 
Q 2569 709 2762 976 
Q 2956 1244 2956 1747 
Q 2956 2250 2762 2517 
Q 2569 2784 2203 2784 
z
M 2203 3584 
Q 3106 3584 3614 3096 
Q 4122 2609 4122 1747 
Q 4122 884 3614 396 
Q 3106 -91 2203 -91 
Q 1297 -91 786 396 
Q 275 884 275 1747 
Q 275 2609 786 3096 
Q 1297 3584 2203 3584 
z
" transform="scale(0.015625)"/>
      <path id="DejaVuSans-Bold-6d" d="M 3781 2919 
Q 3994 3244 4286 3414 
Q 4578 3584 4928 3584 
Q 5531 3584 5847 3212 
Q 6163 2841 6163 2131 
L 6163 0 
L 5038 0 
L 5038 1825 
Q 5041 1866 5042 1909 
Q 5044 1953 5044 2034 
Q 5044 2406 4934 2573 
Q 4825 2741 4581 2741 
Q 4263 2741 4089 2478 
Q 3916 2216 3909 1719 
L 3909 0 
L 2784 0 
L 2784 1825 
Q 2784 2406 2684 2573 
Q 2584 2741 2328 2741 
Q 2006 2741 1831 2477 
Q 1656 2213 1656 1722 
L 1656 0 
L 531 0 
L 531 3500 
L 1656 3500 
L 1656 2988 
Q 1863 3284 2130 3434 
Q 2397 3584 2719 3584 
Q 3081 3584 3359 3409 
Q 3638 3234 3781 2919 
z
" transform="scale(0.015625)"/>
      <path id="DejaVuSans-Bold-61" d="M 2106 1575 
Q 1756 1575 1579 1456 
Q 1403 1338 1403 1106 
Q 1403 894 1545 773 
Q 1688 653 1941 653 
Q 2256 653 2472 879 
Q 2688 1106 2688 1447 
L 2688 1575 
L 2106 1575 
z
M 3816 1997 
L 3816 0 
L 2688 0 
L 2688 519 
Q 2463 200 2181 54 
Q 1900 -91 1497 -91 
Q 953 -91 614 226 
Q 275 544 275 1050 
Q 275 1666 698 1953 
Q 1122 2241 2028 2241 
L 2688 2241 
L 2688 2328 
Q 2688 2594 2478 2717 
Q 2269 2841 1825 2841 
Q 1466 2841 1156 2769 
Q 847 2697 581 2553 
L 581 3406 
Q 941 3494 1303 3539 
Q 1666 3584 2028 3584 
Q 2975 3584 3395 3211 
Q 3816 2838 3816 1997 
z
" transform="scale(0.015625)"/>
      <path id="DejaVuSans-Bold-6e" d="M 4056 2131 
L 4056 0 
L 2931 0 
L 2931 347 
L 2931 1631 
Q 2931 2084 2911 2256 
Q 2891 2428 2841 2509 
Q 2775 2619 2662 2680 
Q 2550 2741 2406 2741 
Q 2056 2741 1856 2470 
Q 1656 2200 1656 1722 
L 1656 0 
L 538 0 
L 538 3500 
L 1656 3500 
L 1656 2988 
Q 1909 3294 2193 3439 
Q 2478 3584 2822 3584 
Q 3428 3584 3742 3212 
Q 4056 2841 4056 2131 
z
" transform="scale(0.015625)"/>
      <path id="DejaVuSans-Bold-28" d="M 2413 -844 
L 1484 -844 
Q 1006 -72 778 623 
Q 550 1319 550 2003 
Q 550 2688 779 3389 
Q 1009 4091 1484 4856 
L 2413 4856 
Q 2013 4116 1813 3408 
Q 1613 2700 1613 2009 
Q 1613 1319 1811 609 
Q 2009 -100 2413 -844 
z
" transform="scale(0.015625)"/>
      <path id="DejaVuSans-3a9" d="M 4647 556 
L 4647 0 
L 2772 0 
L 2772 556 
Q 3325 859 3634 1378 
Q 3944 1897 3944 2528 
Q 3944 3278 3531 3731 
Q 3119 4184 2444 4184 
Q 1769 4184 1355 3729 
Q 941 3275 941 2528 
Q 941 1897 1250 1378 
Q 1563 859 2119 556 
L 2119 0 
L 244 0 
L 244 556 
L 1241 556 
Q 747 991 519 1456 
Q 294 1922 294 2497 
Q 294 3491 894 4106 
Q 1491 4722 2444 4722 
Q 3391 4722 3994 4106 
Q 4594 3494 4594 2528 
Q 4594 1922 4372 1459 
Q 4150 997 3647 556 
L 4647 556 
z
" transform="scale(0.015625)"/>
      <path id="DejaVuSans-Oblique-66" d="M 3059 4863 
L 2969 4384 
L 2419 4384 
Q 2106 4384 1964 4261 
Q 1822 4138 1753 3809 
L 1691 3500 
L 2638 3500 
L 2553 3053 
L 1606 3053 
L 1013 0 
L 434 0 
L 1031 3053 
L 481 3053 
L 563 3500 
L 1113 3500 
L 1159 3744 
Q 1278 4363 1576 4613 
Q 1875 4863 2516 4863 
L 3059 4863 
z
" transform="scale(0.015625)"/>
      <path id="DejaVuSans-Bold-29" d="M 513 -844 
Q 913 -100 1113 609 
Q 1313 1319 1313 2009 
Q 1313 2700 1113 3408 
Q 913 4116 513 4856 
L 1441 4856 
Q 1916 4091 2145 3389 
Q 2375 2688 2375 2003 
Q 2375 1319 2147 623 
Q 1919 -72 1441 -844 
L 513 -844 
z
" transform="scale(0.015625)"/>
     </defs>
     <use xlink:href="#DejaVuSans-Bold-46" transform="translate(0 0.015625)"/>
     <use xlink:href="#DejaVuSans-Bold-6c" transform="translate(68.310547 0.015625)"/>
     <use xlink:href="#DejaVuSans-Bold-75" transform="translate(102.587891 0.015625)"/>
     <use xlink:href="#DejaVuSans-Bold-69" transform="translate(173.779297 0.015625)"/>
     <use xlink:href="#DejaVuSans-Bold-64" transform="translate(208.056641 0.015625)"/>
     <use xlink:href="#DejaVuSans-Bold-20" transform="translate(279.638672 0.015625)"/>
     <use xlink:href="#DejaVuSans-Bold-44" transform="translate(314.453125 0.015625)"/>
     <use xlink:href="#DejaVuSans-Bold-6f" transform="translate(397.460938 0.015625)"/>
     <use xlink:href="#DejaVuSans-Bold-6d" transform="translate(466.162109 0.015625)"/>
     <use xlink:href="#DejaVuSans-Bold-61" transform="translate(570.361328 0.015625)"/>
     <use xlink:href="#DejaVuSans-Bold-69" transform="translate(637.841797 0.015625)"/>
     <use xlink:href="#DejaVuSans-Bold-6e" transform="translate(672.119141 0.015625)"/>
     <use xlink:href="#DejaVuSans-Bold-20" transform="translate(743.310547 0.015625)"/>
     <use xlink:href="#DejaVuSans-Bold-28" transform="translate(778.125 0.015625)"/>
     <use xlink:href="#DejaVuSans-3a9" transform="translate(823.828125 0.015625)"/>
     <use xlink:href="#DejaVuSans-Oblique-66" transform="translate(901.201172 -16.390625) scale(0.7)"/>
     <use xlink:href="#DejaVuSans-Bold-29" transform="translate(928.579102 0.015625)"/>
    </g>
   </g>
   <g id="text_2">
    <!-- Solid -->
    <g transform="translate(68.071844 466.028563) scale(0.14 -0.14)">
     <defs>
      <path id="DejaVuSans-Bold-53" d="M 3834 4519 
L 3834 3531 
Q 3450 3703 3084 3790 
Q 2719 3878 2394 3878 
Q 1963 3878 1756 3759 
Q 1550 3641 1550 3391 
Q 1550 3203 1689 3098 
Q 1828 2994 2194 2919 
L 2706 2816 
Q 3484 2659 3812 2340 
Q 4141 2022 4141 1434 
Q 4141 663 3683 286 
Q 3225 -91 2284 -91 
Q 1841 -91 1394 -6 
Q 947 78 500 244 
L 500 1259 
Q 947 1022 1364 901 
Q 1781 781 2169 781 
Q 2563 781 2772 912 
Q 2981 1044 2981 1288 
Q 2981 1506 2839 1625 
Q 2697 1744 2272 1838 
L 1806 1941 
Q 1106 2091 782 2419 
Q 459 2747 459 3303 
Q 459 4000 909 4375 
Q 1359 4750 2203 4750 
Q 2588 4750 2994 4692 
Q 3400 4634 3834 4519 
z
" transform="scale(0.015625)"/>
     </defs>
     <use xlink:href="#DejaVuSans-Bold-53"/>
     <use xlink:href="#DejaVuSans-Bold-6f" transform="translate(72.021484 0)"/>
     <use xlink:href="#DejaVuSans-Bold-6c" transform="translate(140.722656 0)"/>
     <use xlink:href="#DejaVuSans-Bold-69" transform="translate(175 0)"/>
     <use xlink:href="#DejaVuSans-Bold-64" transform="translate(209.277344 0)"/>
    </g>
    <!-- ($\Omega_s$) -->
    <g transform="translate(73.172 481.7055) scale(0.14 -0.14)">
     <defs>
      <path id="DejaVuSans-Oblique-73" d="M 3200 3397 
L 3091 2853 
Q 2863 2978 2609 3040 
Q 2356 3103 2088 3103 
Q 1634 3103 1373 2948 
Q 1113 2794 1113 2528 
Q 1113 2219 1719 2053 
Q 1766 2041 1788 2034 
L 1972 1978 
Q 2547 1819 2739 1644 
Q 2931 1469 2931 1166 
Q 2931 609 2489 259 
Q 2047 -91 1331 -91 
Q 1053 -91 747 -37 
Q 441 16 72 128 
L 184 722 
Q 500 559 806 475 
Q 1113 391 1394 391 
Q 1816 391 2080 572 
Q 2344 753 2344 1031 
Q 2344 1331 1650 1516 
L 1591 1531 
L 1394 1581 
Q 956 1697 753 1886 
Q 550 2075 550 2369 
Q 550 2928 970 3256 
Q 1391 3584 2113 3584 
Q 2397 3584 2667 3537 
Q 2938 3491 3200 3397 
z
" transform="scale(0.015625)"/>
     </defs>
     <use xlink:href="#DejaVuSans-Bold-28" transform="translate(0 0.125)"/>
     <use xlink:href="#DejaVuSans-3a9" transform="translate(45.703125 0.125)"/>
     <use xlink:href="#DejaVuSans-Oblique-73" transform="translate(123.076172 -16.28125) scale(0.7)"/>
     <use xlink:href="#DejaVuSans-Bold-29" transform="translate(162.280273 0.125)"/>
    </g>
   </g>
   <g id="text_3">
    <!-- Shifted Boundary Method (SBM) Conceptual Diagram -->
    <g transform="translate(62.86625 19.3575) scale(0.16 -0.16)">
     <defs>
      <path id="DejaVuSans-53" d="M 3425 4513 
L 3425 3897 
Q 3066 4069 2747 4153 
Q 2428 4238 2131 4238 
Q 1616 4238 1336 4038 
Q 1056 3838 1056 3469 
Q 1056 3159 1242 3001 
Q 1428 2844 1947 2747 
L 2328 2669 
Q 3034 2534 3370 2195 
Q 3706 1856 3706 1288 
Q 3706 609 3251 259 
Q 2797 -91 1919 -91 
Q 1588 -91 1214 -16 
Q 841 59 441 206 
L 441 856 
Q 825 641 1194 531 
Q 1563 422 1919 422 
Q 2459 422 2753 634 
Q 3047 847 3047 1241 
Q 3047 1584 2836 1778 
Q 2625 1972 2144 2069 
L 1759 2144 
Q 1053 2284 737 2584 
Q 422 2884 422 3419 
Q 422 4038 858 4394 
Q 1294 4750 2059 4750 
Q 2388 4750 2728 4690 
Q 3069 4631 3425 4513 
z
" transform="scale(0.015625)"/>
      <path id="DejaVuSans-68" d="M 3513 2113 
L 3513 0 
L 2938 0 
L 2938 2094 
Q 2938 2591 2744 2837 
Q 2550 3084 2163 3084 
Q 1697 3084 1428 2787 
Q 1159 2491 1159 1978 
L 1159 0 
L 581 0 
L 581 4863 
L 1159 4863 
L 1159 2956 
Q 1366 3272 1645 3428 
Q 1925 3584 2291 3584 
Q 2894 3584 3203 3211 
Q 3513 2838 3513 2113 
z
" transform="scale(0.015625)"/>
      <path id="DejaVuSans-69" d="M 603 3500 
L 1178 3500 
L 1178 0 
L 603 0 
L 603 3500 
z
M 603 4863 
L 1178 4863 
L 1178 4134 
L 603 4134 
L 603 4863 
z
" transform="scale(0.015625)"/>
      <path id="DejaVuSans-66" d="M 2375 4863 
L 2375 4384 
L 1825 4384 
Q 1516 4384 1395 4259 
Q 1275 4134 1275 3809 
L 1275 3500 
L 2222 3500 
L 2222 3053 
L 1275 3053 
L 1275 0 
L 697 0 
L 697 3053 
L 147 3053 
L 147 3500 
L 697 3500 
L 697 3744 
Q 697 4328 969 4595 
Q 1241 4863 1831 4863 
L 2375 4863 
z
" transform="scale(0.015625)"/>
      <path id="DejaVuSans-74" d="M 1172 4494 
L 1172 3500 
L 2356 3500 
L 2356 3053 
L 1172 3053 
L 1172 1153 
Q 1172 725 1289 603 
Q 1406 481 1766 481 
L 2356 481 
L 2356 0 
L 1766 0 
Q 1100 0 847 248 
Q 594 497 594 1153 
L 594 3053 
L 172 3053 
L 172 3500 
L 594 3500 
L 594 4494 
L 1172 4494 
z
" transform="scale(0.015625)"/>
      <path id="DejaVuSans-65" d="M 3597 1894 
L 3597 1613 
L 953 1613 
Q 991 1019 1311 708 
Q 1631 397 2203 397 
Q 2534 397 2845 478 
Q 3156 559 3463 722 
L 3463 178 
Q 3153 47 2828 -22 
Q 2503 -91 2169 -91 
Q 1331 -91 842 396 
Q 353 884 353 1716 
Q 353 2575 817 3079 
Q 1281 3584 2069 3584 
Q 2775 3584 3186 3129 
Q 3597 2675 3597 1894 
z
M 3022 2063 
Q 3016 2534 2758 2815 
Q 2500 3097 2075 3097 
Q 1594 3097 1305 2825 
Q 1016 2553 972 2059 
L 3022 2063 
z
" transform="scale(0.015625)"/>
      <path id="DejaVuSans-64" d="M 2906 2969 
L 2906 4863 
L 3481 4863 
L 3481 0 
L 2906 0 
L 2906 525 
Q 2725 213 2448 61 
Q 2172 -91 1784 -91 
Q 1150 -91 751 415 
Q 353 922 353 1747 
Q 353 2572 751 3078 
Q 1150 3584 1784 3584 
Q 2172 3584 2448 3432 
Q 2725 3281 2906 2969 
z
M 947 1747 
Q 947 1113 1208 752 
Q 1469 391 1925 391 
Q 2381 391 2643 752 
Q 2906 1113 2906 1747 
Q 2906 2381 2643 2742 
Q 2381 3103 1925 3103 
Q 1469 3103 1208 2742 
Q 947 2381 947 1747 
z
" transform="scale(0.015625)"/>
      <path id="DejaVuSans-20" transform="scale(0.015625)"/>
      <path id="DejaVuSans-42" d="M 1259 2228 
L 1259 519 
L 2272 519 
Q 2781 519 3026 730 
Q 3272 941 3272 1375 
Q 3272 1813 3026 2020 
Q 2781 2228 2272 2228 
L 1259 2228 
z
M 1259 4147 
L 1259 2741 
L 2194 2741 
Q 2656 2741 2882 2914 
Q 3109 3088 3109 3444 
Q 3109 3797 2882 3972 
Q 2656 4147 2194 4147 
L 1259 4147 
z
M 628 4666 
L 2241 4666 
Q 2963 4666 3353 4366 
Q 3744 4066 3744 3513 
Q 3744 3084 3544 2831 
Q 3344 2578 2956 2516 
Q 3422 2416 3680 2098 
Q 3938 1781 3938 1306 
Q 3938 681 3513 340 
Q 3088 0 2303 0 
L 628 0 
L 628 4666 
z
" transform="scale(0.015625)"/>
      <path id="DejaVuSans-6f" d="M 1959 3097 
Q 1497 3097 1228 2736 
Q 959 2375 959 1747 
Q 959 1119 1226 758 
Q 1494 397 1959 397 
Q 2419 397 2687 759 
Q 2956 1122 2956 1747 
Q 2956 2369 2687 2733 
Q 2419 3097 1959 3097 
z
M 1959 3584 
Q 2709 3584 3137 3096 
Q 3566 2609 3566 1747 
Q 3566 888 3137 398 
Q 2709 -91 1959 -91 
Q 1206 -91 779 398 
Q 353 888 353 1747 
Q 353 2609 779 3096 
Q 1206 3584 1959 3584 
z
" transform="scale(0.015625)"/>
      <path id="DejaVuSans-75" d="M 544 1381 
L 544 3500 
L 1119 3500 
L 1119 1403 
Q 1119 906 1312 657 
Q 1506 409 1894 409 
Q 2359 409 2629 706 
Q 2900 1003 2900 1516 
L 2900 3500 
L 3475 3500 
L 3475 0 
L 2900 0 
L 2900 538 
Q 2691 219 2414 64 
Q 2138 -91 1772 -91 
Q 1169 -91 856 284 
Q 544 659 544 1381 
z
M 1991 3584 
L 1991 3584 
z
" transform="scale(0.015625)"/>
      <path id="DejaVuSans-6e" d="M 3513 2113 
L 3513 0 
L 2938 0 
L 2938 2094 
Q 2938 2591 2744 2837 
Q 2550 3084 2163 3084 
Q 1697 3084 1428 2787 
Q 1159 2491 1159 1978 
L 1159 0 
L 581 0 
L 581 3500 
L 1159 3500 
L 1159 2956 
Q 1366 3272 1645 3428 
Q 1925 3584 2291 3584 
Q 2894 3584 3203 3211 
Q 3513 2838 3513 2113 
z
" transform="scale(0.015625)"/>
      <path id="DejaVuSans-61" d="M 2194 1759 
Q 1497 1759 1228 1600 
Q 959 1441 959 1056 
Q 959 750 1161 570 
Q 1363 391 1709 391 
Q 2188 391 2477 730 
Q 2766 1069 2766 1631 
L 2766 1759 
L 2194 1759 
z
M 3341 1997 
L 3341 0 
L 2766 0 
L 2766 531 
Q 2569 213 2275 61 
Q 1981 -91 1556 -91 
Q 1019 -91 701 211 
Q 384 513 384 1019 
Q 384 1609 779 1909 
Q 1175 2209 1959 2209 
L 2766 2209 
L 2766 2266 
Q 2766 2663 2505 2880 
Q 2244 3097 1772 3097 
Q 1472 3097 1187 3025 
Q 903 2953 641 2809 
L 641 3341 
Q 956 3463 1253 3523 
Q 1550 3584 1831 3584 
Q 2591 3584 2966 3190 
Q 3341 2797 3341 1997 
z
" transform="scale(0.015625)"/>
      <path id="DejaVuSans-72" d="M 2631 2963 
Q 2534 3019 2420 3045 
Q 2306 3072 2169 3072 
Q 1681 3072 1420 2755 
Q 1159 2438 1159 1844 
L 1159 0 
L 581 0 
L 581 3500 
L 1159 3500 
L 1159 2956 
Q 1341 3275 1631 3429 
Q 1922 3584 2338 3584 
Q 2397 3584 2469 3576 
Q 2541 3569 2628 3553 
L 2631 2963 
z
" transform="scale(0.015625)"/>
      <path id="DejaVuSans-79" d="M 2059 -325 
Q 1816 -950 1584 -1140 
Q 1353 -1331 966 -1331 
L 506 -1331 
L 506 -850 
L 844 -850 
Q 1081 -850 1212 -737 
Q 1344 -625 1503 -206 
L 1606 56 
L 191 3500 
L 800 3500 
L 1894 763 
L 2988 3500 
L 3597 3500 
L 2059 -325 
z
" transform="scale(0.015625)"/>
      <path id="DejaVuSans-4d" d="M 628 4666 
L 1569 4666 
L 2759 1491 
L 3956 4666 
L 4897 4666 
L 4897 0 
L 4281 0 
L 4281 4097 
L 3078 897 
L 2444 897 
L 1241 4097 
L 1241 0 
L 628 0 
L 628 4666 
z
" transform="scale(0.015625)"/>
      <path id="DejaVuSans-28" d="M 1984 4856 
Q 1566 4138 1362 3434 
Q 1159 2731 1159 2009 
Q 1159 1288 1364 580 
Q 1569 -128 1984 -844 
L 1484 -844 
Q 1016 -109 783 600 
Q 550 1309 550 2009 
Q 550 2706 781 3412 
Q 1013 4119 1484 4856 
L 1984 4856 
z
" transform="scale(0.015625)"/>
      <path id="DejaVuSans-29" d="M 513 4856 
L 1013 4856 
Q 1481 4119 1714 3412 
Q 1947 2706 1947 2009 
Q 1947 1309 1714 600 
Q 1481 -109 1013 -844 
L 513 -844 
Q 928 -128 1133 580 
Q 1338 1288 1338 2009 
Q 1338 2731 1133 3434 
Q 928 4138 513 4856 
z
" transform="scale(0.015625)"/>
      <path id="DejaVuSans-43" d="M 4122 4306 
L 4122 3641 
Q 3803 3938 3442 4084 
Q 3081 4231 2675 4231 
Q 1875 4231 1450 3742 
Q 1025 3253 1025 2328 
Q 1025 1406 1450 917 
Q 1875 428 2675 428 
Q 3081 428 3442 575 
Q 3803 722 4122 1019 
L 4122 359 
Q 3791 134 3420 21 
Q 3050 -91 2638 -91 
Q 1578 -91 968 557 
Q 359 1206 359 2328 
Q 359 3453 968 4101 
Q 1578 4750 2638 4750 
Q 3056 4750 3426 4639 
Q 3797 4528 4122 4306 
z
" transform="scale(0.015625)"/>
      <path id="DejaVuSans-63" d="M 3122 3366 
L 3122 2828 
Q 2878 2963 2633 3030 
Q 2388 3097 2138 3097 
Q 1578 3097 1268 2742 
Q 959 2388 959 1747 
Q 959 1106 1268 751 
Q 1578 397 2138 397 
Q 2388 397 2633 464 
Q 2878 531 3122 666 
L 3122 134 
Q 2881 22 2623 -34 
Q 2366 -91 2075 -91 
Q 1284 -91 818 406 
Q 353 903 353 1747 
Q 353 2603 823 3093 
Q 1294 3584 2113 3584 
Q 2378 3584 2631 3529 
Q 2884 3475 3122 3366 
z
" transform="scale(0.015625)"/>
      <path id="DejaVuSans-70" d="M 1159 525 
L 1159 -1331 
L 581 -1331 
L 581 3500 
L 1159 3500 
L 1159 2969 
Q 1341 3281 1617 3432 
Q 1894 3584 2278 3584 
Q 2916 3584 3314 3078 
Q 3713 2572 3713 1747 
Q 3713 922 3314 415 
Q 2916 -91 2278 -91 
Q 1894 -91 1617 61 
Q 1341 213 1159 525 
z
M 3116 1747 
Q 3116 2381 2855 2742 
Q 2594 3103 2138 3103 
Q 1681 3103 1420 2742 
Q 1159 2381 1159 1747 
Q 1159 1113 1420 752 
Q 1681 391 2138 391 
Q 2594 391 2855 752 
Q 3116 1113 3116 1747 
z
" transform="scale(0.015625)"/>
      <path id="DejaVuSans-6c" d="M 603 4863 
L 1178 4863 
L 1178 0 
L 603 0 
L 603 4863 
z
" transform="scale(0.015625)"/>
      <path id="DejaVuSans-44" d="M 1259 4147 
L 1259 519 
L 2022 519 
Q 2988 519 3436 956 
Q 3884 1394 3884 2338 
Q 3884 3275 3436 3711 
Q 2988 4147 2022 4147 
L 1259 4147 
z
M 628 4666 
L 1925 4666 
Q 3281 4666 3915 4102 
Q 4550 3538 4550 2338 
Q 4550 1131 3912 565 
Q 3275 0 1925 0 
L 628 0 
L 628 4666 
z
" transform="scale(0.015625)"/>
      <path id="DejaVuSans-67" d="M 2906 1791 
Q 2906 2416 2648 2759 
Q 2391 3103 1925 3103 
Q 1463 3103 1205 2759 
Q 947 2416 947 1791 
Q 947 1169 1205 825 
Q 1463 481 1925 481 
Q 2391 481 2648 825 
Q 2906 1169 2906 1791 
z
M 3481 434 
Q 3481 -459 3084 -895 
Q 2688 -1331 1869 -1331 
Q 1566 -1331 1297 -1286 
Q 1028 -1241 775 -1147 
L 775 -588 
Q 1028 -725 1275 -790 
Q 1522 -856 1778 -856 
Q 2344 -856 2625 -561 
Q 2906 -266 2906 331 
L 2906 616 
Q 2728 306 2450 153 
Q 2172 0 1784 0 
Q 1141 0 747 490 
Q 353 981 353 1791 
Q 353 2603 747 3093 
Q 1141 3584 1784 3584 
Q 2172 3584 2450 3431 
Q 2728 3278 2906 2969 
L 2906 3500 
L 3481 3500 
L 3481 434 
z
" transform="scale(0.015625)"/>
      <path id="DejaVuSans-6d" d="M 3328 2828 
Q 3544 3216 3844 3400 
Q 4144 3584 4550 3584 
Q 5097 3584 5394 3201 
Q 5691 2819 5691 2113 
L 5691 0 
L 5113 0 
L 5113 2094 
Q 5113 2597 4934 2840 
Q 4756 3084 4391 3084 
Q 3944 3084 3684 2787 
Q 3425 2491 3425 1978 
L 3425 0 
L 2847 0 
L 2847 2094 
Q 2847 2600 2669 2842 
Q 2491 3084 2119 3084 
Q 1678 3084 1418 2786 
Q 1159 2488 1159 1978 
L 1159 0 
L 581 0 
L 581 3500 
L 1159 3500 
L 1159 2956 
Q 1356 3278 1631 3431 
Q 1906 3584 2284 3584 
Q 2666 3584 2933 3390 
Q 3200 3197 3328 2828 
z
" transform="scale(0.015625)"/>
     </defs>
     <use xlink:href="#DejaVuSans-53"/>
     <use xlink:href="#DejaVuSans-68" transform="translate(63.476562 0)"/>
     <use xlink:href="#DejaVuSans-69" transform="translate(126.855469 0)"/>
     <use xlink:href="#DejaVuSans-66" transform="translate(154.638672 0)"/>
     <use xlink:href="#DejaVuSans-74" transform="translate(188.09375 0)"/>
     <use xlink:href="#DejaVuSans-65" transform="translate(227.302734 0)"/>
     <use xlink:href="#DejaVuSans-64" transform="translate(288.826172 0)"/>
     <use xlink:href="#DejaVuSans-20" transform="translate(352.302734 0)"/>
     <use xlink:href="#DejaVuSans-42" transform="translate(384.089844 0)"/>
     <use xlink:href="#DejaVuSans-6f" transform="translate(452.693359 0)"/>
     <use xlink:href="#DejaVuSans-75" transform="translate(513.875 0)"/>
     <use xlink:href="#DejaVuSans-6e" transform="translate(577.253906 0)"/>
     <use xlink:href="#DejaVuSans-64" transform="translate(640.632812 0)"/>
     <use xlink:href="#DejaVuSans-61" transform="translate(704.109375 0)"/>
     <use xlink:href="#DejaVuSans-72" transform="translate(765.388672 0)"/>
     <use xlink:href="#DejaVuSans-79" transform="translate(806.501953 0)"/>
     <use xlink:href="#DejaVuSans-20" transform="translate(865.681641 0)"/>
     <use xlink:href="#DejaVuSans-4d" transform="translate(897.46875 0)"/>
     <use xlink:href="#DejaVuSans-65" transform="translate(983.748047 0)"/>
     <use xlink:href="#DejaVuSans-74" transform="translate(1045.271484 0)"/>
     <use xlink:href="#DejaVuSans-68" transform="translate(1084.480469 0)"/>
     <use xlink:href="#DejaVuSans-6f" transform="translate(1147.859375 0)"/>
     <use xlink:href="#DejaVuSans-64" transform="translate(1209.041016 0)"/>
     <use xlink:href="#DejaVuSans-20" transform="translate(1272.517578 0)"/>
     <use xlink:href="#DejaVuSans-28" transform="translate(1304.304688 0)"/>
     <use xlink:href="#DejaVuSans-53" transform="translate(1343.318359 0)"/>
     <use xlink:href="#DejaVuSans-42" transform="translate(1406.794922 0)"/>
     <use xlink:href="#DejaVuSans-4d" transform="translate(1475.398438 0)"/>
     <use xlink:href="#DejaVuSans-29" transform="translate(1561.677734 0)"/>
     <use xlink:href="#DejaVuSans-20" transform="translate(1600.691406 0)"/>
     <use xlink:href="#DejaVuSans-43" transform="translate(1632.478516 0)"/>
     <use xlink:href="#DejaVuSans-6f" transform="translate(1702.302734 0)"/>
     <use xlink:href="#DejaVuSans-6e" transform="translate(1763.484375 0)"/>
     <use xlink:href="#DejaVuSans-63" transform="translate(1826.863281 0)"/>
     <use xlink:href="#DejaVuSans-65" transform="translate(1881.84375 0)"/>
     <use xlink:href="#DejaVuSans-70" transform="translate(1943.367188 0)"/>
     <use xlink:href="#DejaVuSans-74" transform="translate(2006.84375 0)"/>
     <use xlink:href="#DejaVuSans-75" transform="translate(2046.052734 0)"/>
     <use xlink:href="#DejaVuSans-61" transform="translate(2109.431641 0)"/>
     <use xlink:href="#DejaVuSans-6c" transform="translate(2170.710938 0)"/>
     <use xlink:href="#DejaVuSans-20" transform="translate(2198.494141 0)"/>
     <use xlink:href="#DejaVuSans-44" transform="translate(2230.28125 0)"/>
     <use xlink:href="#DejaVuSans-69" transform="translate(2307.283203 0)"/>
     <use xlink:href="#DejaVuSans-61" transform="translate(2335.066406 0)"/>
     <use xlink:href="#DejaVuSans-67" transform="translate(2396.345703 0)"/>
     <use xlink:href="#DejaVuSans-72" transform="translate(2459.822266 0)"/>
     <use xlink:href="#DejaVuSans-61" transform="translate(2500.935547 0)"/>
     <use xlink:href="#DejaVuSans-6d" transform="translate(2562.214844 0)"/>
    </g>
   </g>
   <g id="line2d_15">
    <defs>
     <path id="m845dcb0bb7" d="M 0 3 
C 0.795609 3 1.55874 2.683901 2.12132 2.12132 
C 2.683901 1.55874 3 0.795609 3 0 
C 3 -0.795609 2.683901 -1.55874 2.12132 -2.12132 
C 1.55874 -2.683901 0.795609 -3 0 -3 
C -0.795609 -3 -1.55874 -2.683901 -2.12132 -2.12132 
C -2.683901 -1.55874 -3 -0.795609 -3 0 
C -3 0.795609 -2.683901 1.55874 -2.12132 2.12132 
C -1.55874 2.683901 -0.795609 3 0 3 
z
" style="stroke: #bf00bf"/>
    </defs>
    <g clip-path="url(#p33ac6dcd35)">
     <use xlink:href="#m845dcb0bb7" x="221.952" y="550.136046" style="fill: #bf00bf; stroke: #bf00bf"/>
    </g>
   </g>
   <g id="line2d_16">
    <g clip-path="url(#p33ac6dcd35)">
     <use xlink:href="#m845dcb0bb7" x="221.952" y="508.5495" style="fill: #bf00bf; stroke: #bf00bf"/>
    </g>
   </g>
   <g id="line2d_17">
    <g clip-path="url(#p33ac6dcd35)">
     <use xlink:href="#m845dcb0bb7" x="221.952" y="466.962954" style="fill: #bf00bf; stroke: #bf00bf"/>
    </g>
   </g>
   <g id="line2d_18">
    <defs>
     <path id="m24d8c45e41" d="M 0 4 
C 1.060812 4 2.078319 3.578535 2.828427 2.828427 
C 3.578535 2.078319 4 1.060812 4 0 
C 4 -1.060812 3.578535 -2.078319 2.828427 -2.828427 
C 2.078319 -3.578535 1.060812 -4 0 -4 
C -1.060812 -4 -2.078319 -3.578535 -2.828427 -2.828427 
C -3.578535 -2.078319 -4 -1.060812 -4 0 
C -4 1.060812 -3.578535 2.078319 -2.828427 2.828427 
C -2.078319 3.578535 -1.060812 4 0 4 
z
" style="stroke: #0000ff"/>
    </defs>
    <g clip-path="url(#p33ac6dcd35)">
     <use xlink:href="#m24d8c45e41" x="293.667558" y="490.62061" style="fill: #0000ff; stroke: #0000ff"/>
    </g>
   </g>
   <g id="line2d_19">
    <defs>
     <path id="m08f889a8a6" d="M -3 3 
L 3 -3 
M -3 -3 
L 3 3 
" style="stroke: #00bfbf; stroke-width: 2"/>
    </defs>
    <g clip-path="url(#p33ac6dcd35)">
     <use xlink:href="#m08f889a8a6" x="448.805454" y="442.760046" style="fill: #00bfbf; stroke: #00bfbf; stroke-width: 2"/>
    </g>
   </g>
   <g id="line2d_20">
    <g clip-path="url(#p33ac6dcd35)">
     <use xlink:href="#m08f889a8a6" x="448.805454" y="401.1735" style="fill: #00bfbf; stroke: #00bfbf; stroke-width: 2"/>
    </g>
   </g>
   <g id="line2d_21">
    <g clip-path="url(#p33ac6dcd35)">
     <use xlink:href="#m08f889a8a6" x="448.805454" y="359.586954" style="fill: #00bfbf; stroke: #00bfbf; stroke-width: 2"/>
    </g>
   </g>
   <g id="line2d_22">
    <g clip-path="url(#p33ac6dcd35)">
     <use xlink:href="#m08f889a8a6" x="490.392" y="442.760046" style="fill: #00bfbf; stroke: #00bfbf; stroke-width: 2"/>
    </g>
   </g>
   <g id="line2d_23">
    <g clip-path="url(#p33ac6dcd35)">
     <use xlink:href="#m08f889a8a6" x="490.392" y="401.1735" style="fill: #00bfbf; stroke: #00bfbf; stroke-width: 2"/>
    </g>
   </g>
   <g id="line2d_24">
    <g clip-path="url(#p33ac6dcd35)">
     <use xlink:href="#m08f889a8a6" x="490.392" y="359.586954" style="fill: #00bfbf; stroke: #00bfbf; stroke-width: 2"/>
    </g>
   </g>
   <g id="line2d_25">
    <g clip-path="url(#p33ac6dcd35)">
     <use xlink:href="#m08f889a8a6" x="531.978546" y="442.760046" style="fill: #00bfbf; stroke: #00bfbf; stroke-width: 2"/>
    </g>
   </g>
   <g id="line2d_26">
    <g clip-path="url(#p33ac6dcd35)">
     <use xlink:href="#m08f889a8a6" x="531.978546" y="401.1735" style="fill: #00bfbf; stroke: #00bfbf; stroke-width: 2"/>
    </g>
   </g>
   <g id="line2d_27">
    <g clip-path="url(#p33ac6dcd35)">
     <use xlink:href="#m08f889a8a6" x="531.978546" y="359.586954" style="fill: #00bfbf; stroke: #00bfbf; stroke-width: 2"/>
    </g>
   </g>
   <g id="line2d_28">
    <g clip-path="url(#p33ac6dcd35)">
     <use xlink:href="#m08f889a8a6" x="341.429454" y="550.136046" style="fill: #00bfbf; stroke: #00bfbf; stroke-width: 2"/>
    </g>
   </g>
   <g id="line2d_29">
    <g clip-path="url(#p33ac6dcd35)">
     <use xlink:href="#m08f889a8a6" x="341.429454" y="508.5495" style="fill: #00bfbf; stroke: #00bfbf; stroke-width: 2"/>
    </g>
   </g>
   <g id="line2d_30">
    <g clip-path="url(#p33ac6dcd35)">
     <use xlink:href="#m08f889a8a6" x="341.429454" y="466.962954" style="fill: #00bfbf; stroke: #00bfbf; stroke-width: 2"/>
    </g>
   </g>
   <g id="line2d_31">
    <g clip-path="url(#p33ac6dcd35)">
     <use xlink:href="#m08f889a8a6" x="383.016" y="550.136046" style="fill: #00bfbf; stroke: #00bfbf; stroke-width: 2"/>
    </g>
   </g>
   <g id="line2d_32">
    <g clip-path="url(#p33ac6dcd35)">
     <use xlink:href="#m08f889a8a6" x="383.016" y="508.5495" style="fill: #00bfbf; stroke: #00bfbf; stroke-width: 2"/>
    </g>
   </g>
   <g id="line2d_33">
    <g clip-path="url(#p33ac6dcd35)">
     <use xlink:href="#m08f889a8a6" x="383.016" y="466.962954" style="fill: #00bfbf; stroke: #00bfbf; stroke-width: 2"/>
    </g>
   </g>
   <g id="line2d_34">
    <g clip-path="url(#p33ac6dcd35)">
     <use xlink:href="#m08f889a8a6" x="424.602546" y="550.136046" style="fill: #00bfbf; stroke: #00bfbf; stroke-width: 2"/>
    </g>
   </g>
   <g id="line2d_35">
    <g clip-path="url(#p33ac6dcd35)">
     <use xlink:href="#m08f889a8a6" x="424.602546" y="508.5495" style="fill: #00bfbf; stroke: #00bfbf; stroke-width: 2"/>
    </g>
   </g>
   <g id="line2d_36">
    <g clip-path="url(#p33ac6dcd35)">
     <use xlink:href="#m08f889a8a6" x="424.602546" y="466.962954" style="fill: #00bfbf; stroke: #00bfbf; stroke-width: 2"/>
    </g>
   </g>
   <g id="line2d_37">
    <defs>
     <path id="ma8d8329015" d="M -4 4 
L 4 4 
L 4 -4 
L -4 -4 
z
" style="stroke: #008000; stroke-linejoin: miter"/>
    </defs>
    <g clip-path="url(#p33ac6dcd35)">
     <use xlink:href="#ma8d8329015" x="345.752569" y="477.599358" style="fill: #008000; stroke: #008000; stroke-linejoin: miter"/>
    </g>
   </g>
   <g id="line2d_38">
    <g clip-path="url(#p33ac6dcd35)">
     <use xlink:href="#ma8d8329015" x="397.837579" y="464.578105" style="fill: #008000; stroke: #008000; stroke-linejoin: miter"/>
    </g>
   </g>
   <g id="line2d_39">
    <g clip-path="url(#p33ac6dcd35)">
     <use xlink:href="#ma8d8329015" x="449.92259" y="451.556853" style="fill: #008000; stroke: #008000; stroke-linejoin: miter"/>
    </g>
   </g>
   <g id="legend_1">
    <g id="patch_5">
     <path d="M 365.98 153.248125 
L 537.08 153.248125 
Q 539.08 153.248125 539.08 151.248125 
L 539.08 32.3575 
Q 539.08 30.3575 537.08 30.3575 
L 365.98 30.3575 
Q 363.98 30.3575 363.98 32.3575 
L 363.98 151.248125 
Q 363.98 153.248125 365.98 153.248125 
z
" style="fill: #ffffff; stroke: #cccccc; stroke-linejoin: miter"/>
    </g>
    <g id="line2d_40">
     <path d="M 367.98 38.4575 
L 377.98 38.4575 
L 387.98 38.4575 
" style="fill: none; stroke: #000000; stroke-width: 3; stroke-linecap: square"/>
    </g>
    <g id="text_4">
     <!-- Physical Boundary ($\Gamma$) -->
     <g transform="translate(395.98 41.9575) scale(0.1 -0.1)">
      <defs>
       <path id="DejaVuSans-50" d="M 1259 4147 
L 1259 2394 
L 2053 2394 
Q 2494 2394 2734 2622 
Q 2975 2850 2975 3272 
Q 2975 3691 2734 3919 
Q 2494 4147 2053 4147 
L 1259 4147 
z
M 628 4666 
L 2053 4666 
Q 2838 4666 3239 4311 
Q 3641 3956 3641 3272 
Q 3641 2581 3239 2228 
Q 2838 1875 2053 1875 
L 1259 1875 
L 1259 0 
L 628 0 
L 628 4666 
z
" transform="scale(0.015625)"/>
       <path id="DejaVuSans-73" d="M 2834 3397 
L 2834 2853 
Q 2591 2978 2328 3040 
Q 2066 3103 1784 3103 
Q 1356 3103 1142 2972 
Q 928 2841 928 2578 
Q 928 2378 1081 2264 
Q 1234 2150 1697 2047 
L 1894 2003 
Q 2506 1872 2764 1633 
Q 3022 1394 3022 966 
Q 3022 478 2636 193 
Q 2250 -91 1575 -91 
Q 1294 -91 989 -36 
Q 684 19 347 128 
L 347 722 
Q 666 556 975 473 
Q 1284 391 1588 391 
Q 1994 391 2212 530 
Q 2431 669 2431 922 
Q 2431 1156 2273 1281 
Q 2116 1406 1581 1522 
L 1381 1569 
Q 847 1681 609 1914 
Q 372 2147 372 2553 
Q 372 3047 722 3315 
Q 1072 3584 1716 3584 
Q 2034 3584 2315 3537 
Q 2597 3491 2834 3397 
z
" transform="scale(0.015625)"/>
       <path id="DejaVuSans-393" d="M 628 0 
L 628 4666 
L 3531 4666 
L 3531 4134 
L 1259 4134 
L 1259 0 
L 628 0 
z
" transform="scale(0.015625)"/>
      </defs>
      <use xlink:href="#DejaVuSans-50" transform="translate(0 0.015625)"/>
      <use xlink:href="#DejaVuSans-68" transform="translate(60.302734 0.015625)"/>
      <use xlink:href="#DejaVuSans-79" transform="translate(123.681641 0.015625)"/>
      <use xlink:href="#DejaVuSans-73" transform="translate(182.861328 0.015625)"/>
      <use xlink:href="#DejaVuSans-69" transform="translate(234.960938 0.015625)"/>
      <use xlink:href="#DejaVuSans-63" transform="translate(262.744141 0.015625)"/>
      <use xlink:href="#DejaVuSans-61" transform="translate(317.724609 0.015625)"/>
      <use xlink:href="#DejaVuSans-6c" transform="translate(379.003906 0.015625)"/>
      <use xlink:href="#DejaVuSans-20" transform="translate(406.787109 0.015625)"/>
      <use xlink:href="#DejaVuSans-42" transform="translate(438.574219 0.015625)"/>
      <use xlink:href="#DejaVuSans-6f" transform="translate(507.177734 0.015625)"/>
      <use xlink:href="#DejaVuSans-75" transform="translate(568.359375 0.015625)"/>
      <use xlink:href="#DejaVuSans-6e" transform="translate(631.738281 0.015625)"/>
      <use xlink:href="#DejaVuSans-64" transform="translate(695.117188 0.015625)"/>
      <use xlink:href="#DejaVuSans-61" transform="translate(758.59375 0.015625)"/>
      <use xlink:href="#DejaVuSans-72" transform="translate(819.873047 0.015625)"/>
      <use xlink:href="#DejaVuSans-79" transform="translate(860.986328 0.015625)"/>
      <use xlink:href="#DejaVuSans-20" transform="translate(920.166016 0.015625)"/>
      <use xlink:href="#DejaVuSans-28" transform="translate(951.953125 0.015625)"/>
      <use xlink:href="#DejaVuSans-393" transform="translate(990.966797 0.015625)"/>
      <use xlink:href="#DejaVuSans-29" transform="translate(1046.679688 0.015625)"/>
     </g>
    </g>
    <g id="patch_6">
     <path d="M 367.98 56.655937 
L 387.98 56.655937 
L 387.98 49.655937 
L 367.98 49.655937 
z
" style="fill: #d3d3d3; fill-opacity: 0.5; stroke: #d3d3d3; stroke-opacity: 0.5; stroke-linejoin: miter"/>
    </g>
    <g id="text_5">
     <!-- Solid Domain ($\Omega_s$) -->
     <g transform="translate(395.98 56.655937) scale(0.1 -0.1)">
      <use xlink:href="#DejaVuSans-53" transform="translate(0 0.015625)"/>
      <use xlink:href="#DejaVuSans-6f" transform="translate(63.476562 0.015625)"/>
      <use xlink:href="#DejaVuSans-6c" transform="translate(124.658203 0.015625)"/>
      <use xlink:href="#DejaVuSans-69" transform="translate(152.441406 0.015625)"/>
      <use xlink:href="#DejaVuSans-64" transform="translate(180.224609 0.015625)"/>
      <use xlink:href="#DejaVuSans-20" transform="translate(243.701172 0.015625)"/>
      <use xlink:href="#DejaVuSans-44" transform="translate(275.488281 0.015625)"/>
      <use xlink:href="#DejaVuSans-6f" transform="translate(352.490234 0.015625)"/>
      <use xlink:href="#DejaVuSans-6d" transform="translate(413.671875 0.015625)"/>
      <use xlink:href="#DejaVuSans-61" transform="translate(511.083984 0.015625)"/>
      <use xlink:href="#DejaVuSans-69" transform="translate(572.363281 0.015625)"/>
      <use xlink:href="#DejaVuSans-6e" transform="translate(600.146484 0.015625)"/>
      <use xlink:href="#DejaVuSans-20" transform="translate(663.525391 0.015625)"/>
      <use xlink:href="#DejaVuSans-28" transform="translate(695.3125 0.015625)"/>
      <use xlink:href="#DejaVuSans-3a9" transform="translate(734.326172 0.015625)"/>
      <use xlink:href="#DejaVuSans-Oblique-73" transform="translate(811.699219 -16.390625) scale(0.7)"/>
      <use xlink:href="#DejaVuSans-29" transform="translate(850.90332 0.015625)"/>
     </g>
    </g>
    <g id="line2d_41">
     <path d="M 367.98 70.235625 
L 377.98 70.235625 
L 387.98 70.235625 
" style="fill: none; stroke-dasharray: 7.4,3.2; stroke-dashoffset: 0; stroke: #ff0000; stroke-width: 2"/>
    </g>
    <g id="text_6">
     <!-- Surrogate Boundary ($\~{\Gamma}$) -->
     <g transform="translate(395.98 73.735625) scale(0.1 -0.1)">
      <defs>
       <path id="DejaVuSans-303" d="M -1621 4281 
L -1799 4453 
Q -1867 4516 -1919 4545 
Q -1971 4575 -2011 4575 
Q -2130 4575 -2186 4461 
Q -2242 4347 -2249 4091 
L -2639 4091 
Q -2633 4513 -2473 4742 
Q -2314 4972 -2030 4972 
Q -1911 4972 -1811 4928 
Q -1711 4884 -1596 4781 
L -1417 4609 
Q -1349 4547 -1297 4517 
Q -1246 4488 -1205 4488 
Q -1086 4488 -1030 4602 
Q -974 4716 -967 4972 
L -577 4972 
Q -583 4550 -742 4320 
Q -902 4091 -1186 4091 
Q -1305 4091 -1405 4134 
Q -1505 4178 -1621 4281 
z
" transform="scale(0.015625)"/>
      </defs>
      <use xlink:href="#DejaVuSans-53" transform="translate(0 0.828125)"/>
      <use xlink:href="#DejaVuSans-75" transform="translate(63.476562 0.828125)"/>
      <use xlink:href="#DejaVuSans-72" transform="translate(126.855469 0.828125)"/>
      <use xlink:href="#DejaVuSans-72" transform="translate(167.96875 0.828125)"/>
      <use xlink:href="#DejaVuSans-6f" transform="translate(209.082031 0.828125)"/>
      <use xlink:href="#DejaVuSans-67" transform="translate(270.263672 0.828125)"/>
      <use xlink:href="#DejaVuSans-61" transform="translate(333.740234 0.828125)"/>
      <use xlink:href="#DejaVuSans-74" transform="translate(395.019531 0.828125)"/>
      <use xlink:href="#DejaVuSans-65" transform="translate(434.228516 0.828125)"/>
      <use xlink:href="#DejaVuSans-20" transform="translate(495.751953 0.828125)"/>
      <use xlink:href="#DejaVuSans-42" transform="translate(527.539062 0.828125)"/>
      <use xlink:href="#DejaVuSans-6f" transform="translate(596.142578 0.828125)"/>
      <use xlink:href="#DejaVuSans-75" transform="translate(657.324219 0.828125)"/>
      <use xlink:href="#DejaVuSans-6e" transform="translate(720.703125 0.828125)"/>
      <use xlink:href="#DejaVuSans-64" transform="translate(784.082031 0.828125)"/>
      <use xlink:href="#DejaVuSans-61" transform="translate(847.558594 0.828125)"/>
      <use xlink:href="#DejaVuSans-72" transform="translate(908.837891 0.828125)"/>
      <use xlink:href="#DejaVuSans-79" transform="translate(949.951172 0.828125)"/>
      <use xlink:href="#DejaVuSans-20" transform="translate(1009.130859 0.828125)"/>
      <use xlink:href="#DejaVuSans-28" transform="translate(1040.917969 0.828125)"/>
      <use xlink:href="#DejaVuSans-303" transform="translate(1140.094238 22.3125)"/>
      <use xlink:href="#DejaVuSans-393" transform="translate(1079.931641 0.828125)"/>
      <use xlink:href="#DejaVuSans-29" transform="translate(1135.644531 0.828125)"/>
     </g>
    </g>
    <g id="line2d_42">
     <g>
      <use xlink:href="#m845dcb0bb7" x="377.98" y="84.934062" style="fill: #bf00bf; stroke: #bf00bf"/>
     </g>
    </g>
    <g id="text_7">
     <!-- P=2 Face Points -->
     <g transform="translate(395.98 88.434062) scale(0.1 -0.1)">
      <defs>
       <path id="DejaVuSans-3d" d="M 678 2906 
L 4684 2906 
L 4684 2381 
L 678 2381 
L 678 2906 
z
M 678 1631 
L 4684 1631 
L 4684 1100 
L 678 1100 
L 678 1631 
z
" transform="scale(0.015625)"/>
       <path id="DejaVuSans-32" d="M 1228 531 
L 3431 531 
L 3431 0 
L 469 0 
L 469 531 
Q 828 903 1448 1529 
Q 2069 2156 2228 2338 
Q 2531 2678 2651 2914 
Q 2772 3150 2772 3378 
Q 2772 3750 2511 3984 
Q 2250 4219 1831 4219 
Q 1534 4219 1204 4116 
Q 875 4013 500 3803 
L 500 4441 
Q 881 4594 1212 4672 
Q 1544 4750 1819 4750 
Q 2544 4750 2975 4387 
Q 3406 4025 3406 3419 
Q 3406 3131 3298 2873 
Q 3191 2616 2906 2266 
Q 2828 2175 2409 1742 
Q 1991 1309 1228 531 
z
" transform="scale(0.015625)"/>
       <path id="DejaVuSans-46" d="M 628 4666 
L 3309 4666 
L 3309 4134 
L 1259 4134 
L 1259 2759 
L 3109 2759 
L 3109 2228 
L 1259 2228 
L 1259 0 
L 628 0 
L 628 4666 
z
" transform="scale(0.015625)"/>
      </defs>
      <use xlink:href="#DejaVuSans-50"/>
      <use xlink:href="#DejaVuSans-3d" transform="translate(60.302734 0)"/>
      <use xlink:href="#DejaVuSans-32" transform="translate(144.091797 0)"/>
      <use xlink:href="#DejaVuSans-20" transform="translate(207.714844 0)"/>
      <use xlink:href="#DejaVuSans-46" transform="translate(239.501953 0)"/>
      <use xlink:href="#DejaVuSans-61" transform="translate(287.896484 0)"/>
      <use xlink:href="#DejaVuSans-63" transform="translate(349.175781 0)"/>
      <use xlink:href="#DejaVuSans-65" transform="translate(404.15625 0)"/>
      <use xlink:href="#DejaVuSans-20" transform="translate(465.679688 0)"/>
      <use xlink:href="#DejaVuSans-50" transform="translate(497.466797 0)"/>
      <use xlink:href="#DejaVuSans-6f" transform="translate(554.144531 0)"/>
      <use xlink:href="#DejaVuSans-69" transform="translate(615.326172 0)"/>
      <use xlink:href="#DejaVuSans-6e" transform="translate(643.109375 0)"/>
      <use xlink:href="#DejaVuSans-74" transform="translate(706.488281 0)"/>
      <use xlink:href="#DejaVuSans-73" transform="translate(745.697266 0)"/>
     </g>
    </g>
    <g id="line2d_43">
     <g>
      <use xlink:href="#m24d8c45e41" x="377.98" y="99.61375" style="fill: #0000ff; stroke: #0000ff"/>
     </g>
    </g>
    <g id="text_8">
     <!-- Physical Boundary Point ($D$) -->
     <g transform="translate(395.98 103.11375) scale(0.1 -0.1)">
      <defs>
       <path id="DejaVuSans-Oblique-44" d="M 1081 4666 
L 2438 4666 
Q 3519 4666 4070 4208 
Q 4622 3750 4622 2847 
Q 4622 2250 4412 1698 
Q 4203 1147 3834 769 
Q 3463 381 2891 190 
Q 2319 0 1538 0 
L 172 0 
L 1081 4666 
z
M 1613 4147 
L 909 519 
L 1734 519 
Q 2794 519 3375 1128 
Q 3956 1738 3956 2847 
Q 3956 3519 3581 3833 
Q 3206 4147 2406 4147 
L 1613 4147 
z
" transform="scale(0.015625)"/>
      </defs>
      <use xlink:href="#DejaVuSans-50" transform="translate(0 0.015625)"/>
      <use xlink:href="#DejaVuSans-68" transform="translate(60.302734 0.015625)"/>
      <use xlink:href="#DejaVuSans-79" transform="translate(123.681641 0.015625)"/>
      <use xlink:href="#DejaVuSans-73" transform="translate(182.861328 0.015625)"/>
      <use xlink:href="#DejaVuSans-69" transform="translate(234.960938 0.015625)"/>
      <use xlink:href="#DejaVuSans-63" transform="translate(262.744141 0.015625)"/>
      <use xlink:href="#DejaVuSans-61" transform="translate(317.724609 0.015625)"/>
      <use xlink:href="#DejaVuSans-6c" transform="translate(379.003906 0.015625)"/>
      <use xlink:href="#DejaVuSans-20" transform="translate(406.787109 0.015625)"/>
      <use xlink:href="#DejaVuSans-42" transform="translate(438.574219 0.015625)"/>
      <use xlink:href="#DejaVuSans-6f" transform="translate(507.177734 0.015625)"/>
      <use xlink:href="#DejaVuSans-75" transform="translate(568.359375 0.015625)"/>
      <use xlink:href="#DejaVuSans-6e" transform="translate(631.738281 0.015625)"/>
      <use xlink:href="#DejaVuSans-64" transform="translate(695.117188 0.015625)"/>
      <use xlink:href="#DejaVuSans-61" transform="translate(758.59375 0.015625)"/>
      <use xlink:href="#DejaVuSans-72" transform="translate(819.873047 0.015625)"/>
      <use xlink:href="#DejaVuSans-79" transform="translate(860.986328 0.015625)"/>
      <use xlink:href="#DejaVuSans-20" transform="translate(920.166016 0.015625)"/>
      <use xlink:href="#DejaVuSans-50" transform="translate(951.953125 0.015625)"/>
      <use xlink:href="#DejaVuSans-6f" transform="translate(1012.255859 0.015625)"/>
      <use xlink:href="#DejaVuSans-69" transform="translate(1073.4375 0.015625)"/>
      <use xlink:href="#DejaVuSans-6e" transform="translate(1101.220703 0.015625)"/>
      <use xlink:href="#DejaVuSans-74" transform="translate(1164.599609 0.015625)"/>
      <use xlink:href="#DejaVuSans-20" transform="translate(1203.808594 0.015625)"/>
      <use xlink:href="#DejaVuSans-28" transform="translate(1235.595703 0.015625)"/>
      <use xlink:href="#DejaVuSans-Oblique-44" transform="translate(1274.609375 0.015625)"/>
      <use xlink:href="#DejaVuSans-29" transform="translate(1351.611328 0.015625)"/>
     </g>
    </g>
    <g id="line2d_44">
     <g>
      <use xlink:href="#ma8d8329015" x="377.98" y="114.312187" style="fill: #008000; stroke: #008000; stroke-linejoin: miter"/>
     </g>
    </g>
    <g id="text_9">
     <!-- 1D Stencil Points -->
     <g transform="translate(395.98 117.812187) scale(0.1 -0.1)">
      <defs>
       <path id="DejaVuSans-31" d="M 794 531 
L 1825 531 
L 1825 4091 
L 703 3866 
L 703 4441 
L 1819 4666 
L 2450 4666 
L 2450 531 
L 3481 531 
L 3481 0 
L 794 0 
L 794 531 
z
" transform="scale(0.015625)"/>
      </defs>
      <use xlink:href="#DejaVuSans-31"/>
      <use xlink:href="#DejaVuSans-44" transform="translate(63.623047 0)"/>
      <use xlink:href="#DejaVuSans-20" transform="translate(140.625 0)"/>
      <use xlink:href="#DejaVuSans-53" transform="translate(172.412109 0)"/>
      <use xlink:href="#DejaVuSans-74" transform="translate(235.888672 0)"/>
      <use xlink:href="#DejaVuSans-65" transform="translate(275.097656 0)"/>
      <use xlink:href="#DejaVuSans-6e" transform="translate(336.621094 0)"/>
      <use xlink:href="#DejaVuSans-63" transform="translate(400 0)"/>
      <use xlink:href="#DejaVuSans-69" transform="translate(454.980469 0)"/>
      <use xlink:href="#DejaVuSans-6c" transform="translate(482.763672 0)"/>
      <use xlink:href="#DejaVuSans-20" transform="translate(510.546875 0)"/>
      <use xlink:href="#DejaVuSans-50" transform="translate(542.333984 0)"/>
      <use xlink:href="#DejaVuSans-6f" transform="translate(599.011719 0)"/>
      <use xlink:href="#DejaVuSans-69" transform="translate(660.193359 0)"/>
      <use xlink:href="#DejaVuSans-6e" transform="translate(687.976562 0)"/>
      <use xlink:href="#DejaVuSans-74" transform="translate(751.355469 0)"/>
      <use xlink:href="#DejaVuSans-73" transform="translate(790.564453 0)"/>
     </g>
    </g>
    <g id="patch_7">
     <path d="M 367.98 132.490313 
L 387.98 132.490313 
L 387.98 125.490313 
L 367.98 125.490313 
z
" style="fill: #ffffcc; opacity: 0.5; stroke: #ffffcc; stroke-linejoin: miter"/>
    </g>
    <g id="text_10">
     <!-- Donor Element(s) -->
     <g transform="translate(395.98 132.490313) scale(0.1 -0.1)">
      <defs>
       <path id="DejaVuSans-45" d="M 628 4666 
L 3578 4666 
L 3578 4134 
L 1259 4134 
L 1259 2753 
L 3481 2753 
L 3481 2222 
L 1259 2222 
L 1259 531 
L 3634 531 
L 3634 0 
L 628 0 
L 628 4666 
z
" transform="scale(0.015625)"/>
      </defs>
      <use xlink:href="#DejaVuSans-44"/>
      <use xlink:href="#DejaVuSans-6f" transform="translate(77.001953 0)"/>
      <use xlink:href="#DejaVuSans-6e" transform="translate(138.183594 0)"/>
      <use xlink:href="#DejaVuSans-6f" transform="translate(201.5625 0)"/>
      <use xlink:href="#DejaVuSans-72" transform="translate(262.744141 0)"/>
      <use xlink:href="#DejaVuSans-20" transform="translate(303.857422 0)"/>
      <use xlink:href="#DejaVuSans-45" transform="translate(335.644531 0)"/>
      <use xlink:href="#DejaVuSans-6c" transform="translate(398.828125 0)"/>
      <use xlink:href="#DejaVuSans-65" transform="translate(426.611328 0)"/>
      <use xlink:href="#DejaVuSans-6d" transform="translate(488.134766 0)"/>
      <use xlink:href="#DejaVuSans-65" transform="translate(585.546875 0)"/>
      <use xlink:href="#DejaVuSans-6e" transform="translate(647.070312 0)"/>
      <use xlink:href="#DejaVuSans-74" transform="translate(710.449219 0)"/>
      <use xlink:href="#DejaVuSans-28" transform="translate(749.658203 0)"/>
      <use xlink:href="#DejaVuSans-73" transform="translate(788.671875 0)"/>
      <use xlink:href="#DejaVuSans-29" transform="translate(840.771484 0)"/>
     </g>
    </g>
    <g id="line2d_45">
     <g>
      <use xlink:href="#m08f889a8a6" x="377.98" y="143.668437" style="fill: #00bfbf; stroke: #00bfbf; stroke-width: 2"/>
     </g>
    </g>
    <g id="text_11">
     <!-- P=2 Solution Points -->
     <g transform="translate(395.98 147.168437) scale(0.1 -0.1)">
      <use xlink:href="#DejaVuSans-50"/>
      <use xlink:href="#DejaVuSans-3d" transform="translate(60.302734 0)"/>
      <use xlink:href="#DejaVuSans-32" transform="translate(144.091797 0)"/>
      <use xlink:href="#DejaVuSans-20" transform="translate(207.714844 0)"/>
      <use xlink:href="#DejaVuSans-53" transform="translate(239.501953 0)"/>
      <use xlink:href="#DejaVuSans-6f" transform="translate(302.978516 0)"/>
      <use xlink:href="#DejaVuSans-6c" transform="translate(364.160156 0)"/>
      <use xlink:href="#DejaVuSans-75" transform="translate(391.943359 0)"/>
      <use xlink:href="#DejaVuSans-74" transform="translate(455.322266 0)"/>
      <use xlink:href="#DejaVuSans-69" transform="translate(494.53125 0)"/>
      <use xlink:href="#DejaVuSans-6f" transform="translate(522.314453 0)"/>
      <use xlink:href="#DejaVuSans-6e" transform="translate(583.496094 0)"/>
      <use xlink:href="#DejaVuSans-20" transform="translate(646.875 0)"/>
      <use xlink:href="#DejaVuSans-50" transform="translate(678.662109 0)"/>
      <use xlink:href="#DejaVuSans-6f" transform="translate(735.339844 0)"/>
      <use xlink:href="#DejaVuSans-69" transform="translate(796.521484 0)"/>
      <use xlink:href="#DejaVuSans-6e" transform="translate(824.304688 0)"/>
      <use xlink:href="#DejaVuSans-74" transform="translate(887.683594 0)"/>
      <use xlink:href="#DejaVuSans-73" transform="translate(926.892578 0)"/>
     </g>
    </g>
   </g>
  </g>
 </g>
 <defs>
  <clipPath id="p33ac6dcd35">
   <rect x="7.2" y="25.3575" width="536.88" height="536.88"/>
  </clipPath>
 </defs>
</svg>
