<?xml version="1.0" encoding="UTF-8" standalone="no"?>
<!DOCTYPE svg PUBLIC "-//W3C//DTD SVG 1.1//EN"
 "http://www.w3.org/Graphics/SVG/1.1/DTD/svg11.dtd">
<!-- Generated by graphviz version 2.40.1 (20161225.0304)
 -->
<!-- Title: SolverFlow Pages: 1 -->
<svg width="1889pt" height="441pt"
 viewBox="0.00 0.00 1889.00 441.20" xmlns="http://www.w3.org/2000/svg" xmlns:xlink="http://www.w3.org/1999/xlink">
<g id="graph0" class="graph" transform="scale(1 1) rotate(0) translate(4 437.2)">
<title>SolverFlow</title>
<g id="clust1" class="cluster">
<title>cluster_pre</title>
<path fill="transparent" stroke="#134e4a" stroke-dasharray="5,2" d="M33,-312C33,-312 874,-312 874,-312 880,-312 886,-318 886,-324 886,-324 886,-413.2 886,-413.2 886,-419.2 880,-425.2 874,-425.2 874,-425.2 33,-425.2 33,-425.2 27,-425.2 21,-419.2 21,-413.2 21,-413.2 21,-324 21,-324 21,-318 27,-312 33,-312"/>
<text text-anchor="middle" x="74.0926" y="-408.6" font-family="Inter, sans-serif" font-size="14.00" fill="#0f766e">1. Pre&#45;Iterations</text>
</g>
<g id="clust3" class="cluster">
<title>cluster_iter</title>
<path fill="transparent" stroke="#312e81" stroke-dasharray="5,2" d="M20,-160C20,-160 1861,-160 1861,-160 1867,-160 1873,-166 1873,-172 1873,-172 1873,-261.2 1873,-261.2 1873,-267.2 1867,-273.2 1861,-273.2 1861,-273.2 20,-273.2 20,-273.2 14,-273.2 8,-267.2 8,-261.2 8,-261.2 8,-172 8,-172 8,-166 14,-160 20,-160"/>
<text text-anchor="middle" x="135.9429" y="-256.6" font-family="Inter, sans-serif" font-size="14.00" fill="#4338ca">2. During Iterations (Time&#45;Stepping Loop)</text>
</g>
<g id="clust6" class="cluster">
<title>cluster_post</title>
<path fill="transparent" stroke="#881337" stroke-dasharray="5,2" d="M20,-8C20,-8 160,-8 160,-8 166,-8 172,-14 172,-20 172,-20 172,-109.2 172,-109.2 172,-115.2 166,-121.2 160,-121.2 160,-121.2 20,-121.2 20,-121.2 14,-121.2 8,-115.2 8,-109.2 8,-109.2 8,-20 8,-20 8,-14 14,-8 20,-8"/>
<text text-anchor="middle" x="61.1003" y="-104.6" font-family="Inter, sans-serif" font-size="14.00" fill="#be123c">3. Post&#45;Iteration</text>
</g>
<!-- load_params -->
<g id="node1" class="node">
<title>load_params</title>
<path fill="#0f766e" stroke="#2dd4bf" stroke-width="2" d="M139.456,-367.4017C139.456,-367.4017 40.544,-367.4017 40.544,-367.4017 34.544,-367.4017 28.544,-361.4017 28.544,-355.4017 28.544,-355.4017 28.544,-332.1983 28.544,-332.1983 28.544,-326.1983 34.544,-320.1983 40.544,-320.1983 40.544,-320.1983 139.456,-320.1983 139.456,-320.1983 145.456,-320.1983 151.456,-326.1983 151.456,-332.1983 151.456,-332.1983 151.456,-355.4017 151.456,-355.4017 151.456,-361.4017 145.456,-367.4017 139.456,-367.4017"/>
<text text-anchor="middle" x="90" y="-348" font-family="Inter, sans-serif" font-size="14.00" fill="#f0fdfa">Load Parameters</text>
<text text-anchor="middle" x="90" y="-331.2" font-family="Inter, sans-serif" font-size="14.00" fill="#f0fdfa">(Parameters)</text>
</g>
<!-- setup_solver -->
<g id="node2" class="node">
<title>setup_solver</title>
<path fill="#0f766e" stroke="#2dd4bf" stroke-width="2" d="M373.1994,-367.4017C373.1994,-367.4017 278.8006,-367.4017 278.8006,-367.4017 272.8006,-367.4017 266.8006,-361.4017 266.8006,-355.4017 266.8006,-355.4017 266.8006,-332.1983 266.8006,-332.1983 266.8006,-326.1983 272.8006,-320.1983 278.8006,-320.1983 278.8006,-320.1983 373.1994,-320.1983 373.1994,-320.1983 379.1994,-320.1983 385.1994,-326.1983 385.1994,-332.1983 385.1994,-332.1983 385.1994,-355.4017 385.1994,-355.4017 385.1994,-361.4017 379.1994,-367.4017 373.1994,-367.4017"/>
<text text-anchor="middle" x="326" y="-348" font-family="Inter, sans-serif" font-size="14.00" fill="#f0fdfa">Setup Solver</text>
<text text-anchor="middle" x="326" y="-331.2" font-family="Inter, sans-serif" font-size="14.00" fill="#f0fdfa">(Solver::Solver)</text>
</g>
<!-- load_params&#45;&gt;setup_solver -->
<g id="edge1" class="edge">
<title>load_params&#45;&gt;setup_solver</title>
<path fill="none" stroke="#94a3b8" stroke-width="2" d="M151.3047,-343.8C186.293,-343.8 221.2813,-343.8 256.2696,-343.8"/>
<polygon fill="#94a3b8" stroke="#94a3b8" stroke-width="2" points="256.6309,-347.3001 266.6309,-343.8 256.6309,-340.3001 256.6309,-347.3001"/>
</g>
<!-- dt -->
<g id="node5" class="node">
<title>dt</title>
<path fill="#4338ca" stroke="#818cf8" stroke-width="2" d="M151.752,-215.4017C151.752,-215.4017 28.248,-215.4017 28.248,-215.4017 22.248,-215.4017 16.248,-209.4017 16.248,-203.4017 16.248,-203.4017 16.248,-180.1983 16.248,-180.1983 16.248,-174.1983 22.248,-168.1983 28.248,-168.1983 28.248,-168.1983 151.752,-168.1983 151.752,-168.1983 157.752,-168.1983 163.752,-174.1983 163.752,-180.1983 163.752,-180.1983 163.752,-203.4017 163.752,-203.4017 163.752,-209.4017 157.752,-215.4017 151.752,-215.4017"/>
<text text-anchor="middle" x="90" y="-196" font-family="Inter, sans-serif" font-size="14.00" fill="#eef2ff">Compute Time Step</text>
<text text-anchor="middle" x="90" y="-179.2" font-family="Inter, sans-serif" font-size="14.00" fill="#eef2ff">(Solver::compute_dt)</text>
</g>
<!-- load_params&#45;&gt;dt -->
<!-- init_state -->
<g id="node3" class="node">
<title>init_state</title>
<path fill="#0f766e" stroke="#2dd4bf" stroke-width="2" d="M621.7478,-367.4017C621.7478,-367.4017 512.2522,-367.4017 512.2522,-367.4017 506.2522,-367.4017 500.2522,-361.4017 500.2522,-355.4017 500.2522,-355.4017 500.2522,-332.1983 500.2522,-332.1983 500.2522,-326.1983 506.2522,-320.1983 512.2522,-320.1983 512.2522,-320.1983 621.7478,-320.1983 621.7478,-320.1983 627.7478,-320.1983 633.7478,-326.1983 633.7478,-332.1983 633.7478,-332.1983 633.7478,-355.4017 633.7478,-355.4017 633.7478,-361.4017 627.7478,-367.4017 621.7478,-367.4017"/>
<text text-anchor="middle" x="567" y="-348" font-family="Inter, sans-serif" font-size="14.00" fill="#f0fdfa">Initialize State</text>
<text text-anchor="middle" x="567" y="-331.2" font-family="Inter, sans-serif" font-size="14.00" fill="#f0fdfa">(IC::apply/Restart)</text>
</g>
<!-- setup_solver&#45;&gt;init_state -->
<g id="edge2" class="edge">
<title>setup_solver&#45;&gt;init_state</title>
<path fill="none" stroke="#94a3b8" stroke-width="2" d="M385.3086,-343.8C420.0832,-343.8 454.8577,-343.8 489.6323,-343.8"/>
<polygon fill="#94a3b8" stroke="#94a3b8" stroke-width="2" points="489.9304,-347.3001 499.9303,-343.8 489.9303,-340.3001 489.9304,-347.3001"/>
</g>
<!-- init_igr -->
<g id="node4" class="node">
<title>init_igr</title>
<path fill="#0f766e" stroke="#2dd4bf" stroke-width="2" d="M866.2963,-367.4017C866.2963,-367.4017 761.7037,-367.4017 761.7037,-367.4017 755.7037,-367.4017 749.7037,-361.4017 749.7037,-355.4017 749.7037,-355.4017 749.7037,-332.1983 749.7037,-332.1983 749.7037,-326.1983 755.7037,-320.1983 761.7037,-320.1983 761.7037,-320.1983 866.2963,-320.1983 866.2963,-320.1983 872.2963,-320.1983 878.2963,-326.1983 878.2963,-332.1983 878.2963,-332.1983 878.2963,-355.4017 878.2963,-355.4017 878.2963,-361.4017 872.2963,-367.4017 866.2963,-367.4017"/>
<text text-anchor="middle" x="814" y="-348" font-family="Inter, sans-serif" font-size="14.00" fill="#f0fdfa">Initial IGR Setup</text>
<text text-anchor="middle" x="814" y="-331.2" font-family="Inter, sans-serif" font-size="14.00" fill="#f0fdfa">(compute_sensor)</text>
</g>
<!-- init_state&#45;&gt;init_igr -->
<g id="edge3" class="edge">
<title>init_state&#45;&gt;init_igr</title>
<path fill="none" stroke="#94a3b8" stroke-width="2" d="M634.0566,-343.8C669.1364,-343.8 704.2161,-343.8 739.2959,-343.8"/>
<polygon fill="#94a3b8" stroke="#94a3b8" stroke-width="2" points="739.6843,-347.3001 749.6843,-343.8 739.6843,-340.3001 739.6843,-347.3001"/>
</g>
<!-- init_igr&#45;&gt;dt -->
<g id="edge12" class="edge">
<title>init_igr&#45;&gt;dt</title>
<path fill="none" stroke="#94a3b8" stroke-width="2" d="M749.5812,-330.0869C718.9217,-323.9129 681.6807,-316.9222 648,-312 478.7049,-287.2585 429.9782,-318.5339 265,-273.2 220.6587,-261.0156 173.5666,-238.502 139.4159,-220.2353"/>
<polygon fill="#94a3b8" stroke="#94a3b8" stroke-width="2" points="141.0418,-217.1355 130.5818,-215.4504 137.7079,-223.2907 141.0418,-217.1355"/>
</g>
<!-- ib -->
<g id="node6" class="node">
<title>ib</title>
<path fill="#0369a1" stroke="#38bdf8" stroke-width="2" d="M378.691,-215.4017C378.691,-215.4017 291.309,-215.4017 291.309,-215.4017 285.309,-215.4017 279.309,-209.4017 279.309,-203.4017 279.309,-203.4017 279.309,-180.1983 279.309,-180.1983 279.309,-174.1983 285.309,-168.1983 291.309,-168.1983 291.309,-168.1983 378.691,-168.1983 378.691,-168.1983 384.691,-168.1983 390.691,-174.1983 390.691,-180.1983 390.691,-180.1983 390.691,-203.4017 390.691,-203.4017 390.691,-209.4017 384.691,-215.4017 378.691,-215.4017"/>
<text text-anchor="middle" x="335" y="-196" font-family="Inter, sans-serif" font-size="14.00" fill="#f0f9ff">Update IB</text>
<text text-anchor="middle" x="335" y="-179.2" font-family="Inter, sans-serif" font-size="14.00" fill="#f0f9ff">(update_mask)</text>
</g>
<!-- dt&#45;&gt;ib -->
<g id="edge4" class="edge">
<title>dt&#45;&gt;ib</title>
<path fill="none" stroke="#94a3b8" stroke-width="2" d="M164.1699,-191.8C199.0927,-191.8 234.0154,-191.8 268.9381,-191.8"/>
<polygon fill="#94a3b8" stroke="#94a3b8" stroke-width="2" points="269.2801,-195.3001 279.28,-191.8 269.28,-188.3001 269.2801,-195.3001"/>
</g>
<!-- finish -->
<g id="node13" class="node">
<title>finish</title>
<path fill="#be123c" stroke="#fb7185" stroke-width="2" d="M151.8883,-63.4017C151.8883,-63.4017 28.1117,-63.4017 28.1117,-63.4017 22.1117,-63.4017 16.1117,-57.4017 16.1117,-51.4017 16.1117,-51.4017 16.1117,-28.1983 16.1117,-28.1983 16.1117,-22.1983 22.1117,-16.1983 28.1117,-16.1983 28.1117,-16.1983 151.8883,-16.1983 151.8883,-16.1983 157.8883,-16.1983 163.8883,-22.1983 163.8883,-28.1983 163.8883,-28.1983 163.8883,-51.4017 163.8883,-51.4017 163.8883,-57.4017 157.8883,-63.4017 151.8883,-63.4017"/>
<text text-anchor="middle" x="90" y="-44" font-family="Inter, sans-serif" font-size="14.00" fill="#fff1f2">Simulation Complete</text>
<text text-anchor="middle" x="90" y="-27.2" font-family="Inter, sans-serif" font-size="14.00" fill="#fff1f2">(Clean exit)</text>
</g>
<!-- dt&#45;&gt;finish -->
<!-- igr -->
<g id="node7" class="node">
<title>igr</title>
<path fill="#0369a1" stroke="#38bdf8" stroke-width="2" d="M631.3319,-215.4017C631.3319,-215.4017 518.6681,-215.4017 518.6681,-215.4017 512.6681,-215.4017 506.6681,-209.4017 506.6681,-203.4017 506.6681,-203.4017 506.6681,-180.1983 506.6681,-180.1983 506.6681,-174.1983 512.6681,-168.1983 518.6681,-168.1983 518.6681,-168.1983 631.3319,-168.1983 631.3319,-168.1983 637.3319,-168.1983 643.3319,-174.1983 643.3319,-180.1983 643.3319,-180.1983 643.3319,-203.4017 643.3319,-203.4017 643.3319,-209.4017 637.3319,-215.4017 631.3319,-215.4017"/>
<text text-anchor="middle" x="575" y="-196" font-family="Inter, sans-serif" font-size="14.00" fill="#f0f9ff">Calculate IGR</text>
<text text-anchor="middle" x="575" y="-179.2" font-family="Inter, sans-serif" font-size="14.00" fill="#f0f9ff">(entropic_pressure)</text>
</g>
<!-- ib&#45;&gt;igr -->
<g id="edge5" class="edge">
<title>ib&#45;&gt;igr</title>
<path fill="none" stroke="#94a3b8" stroke-width="2" d="M390.7813,-191.8C425.9304,-191.8 461.0795,-191.8 496.2286,-191.8"/>
<polygon fill="#94a3b8" stroke="#94a3b8" stroke-width="2" points="496.6376,-195.3001 506.6376,-191.8 496.6375,-188.3001 496.6376,-195.3001"/>
</g>
<!-- fluxes -->
<g id="node8" class="node">
<title>fluxes</title>
<path fill="#0369a1" stroke="#38bdf8" stroke-width="2" d="M868.6996,-215.4017C868.6996,-215.4017 771.3004,-215.4017 771.3004,-215.4017 765.3004,-215.4017 759.3004,-209.4017 759.3004,-203.4017 759.3004,-203.4017 759.3004,-180.1983 759.3004,-180.1983 759.3004,-174.1983 765.3004,-168.1983 771.3004,-168.1983 771.3004,-168.1983 868.6996,-168.1983 868.6996,-168.1983 874.6996,-168.1983 880.6996,-174.1983 880.6996,-180.1983 880.6996,-180.1983 880.6996,-203.4017 880.6996,-203.4017 880.6996,-209.4017 874.6996,-215.4017 868.6996,-215.4017"/>
<text text-anchor="middle" x="820" y="-196" font-family="Inter, sans-serif" font-size="14.00" fill="#f0f9ff">Calculate Fluxes</text>
<text text-anchor="middle" x="820" y="-179.2" font-family="Inter, sans-serif" font-size="14.00" fill="#f0f9ff">(euler/viscous)</text>
</g>
<!-- igr&#45;&gt;fluxes -->
<g id="edge6" class="edge">
<title>igr&#45;&gt;fluxes</title>
<path fill="none" stroke="#94a3b8" stroke-width="2" d="M643.4277,-191.8C678.4781,-191.8 713.5284,-191.8 748.5787,-191.8"/>
<polygon fill="#94a3b8" stroke="#94a3b8" stroke-width="2" points="748.9584,-195.3001 758.9584,-191.8 748.9584,-188.3001 748.9584,-195.3001"/>
</g>
<!-- update_state -->
<g id="node9" class="node">
<title>update_state</title>
<path fill="#0369a1" stroke="#38bdf8" stroke-width="2" d="M1099.7062,-215.4017C1099.7062,-215.4017 1008.2938,-215.4017 1008.2938,-215.4017 1002.2938,-215.4017 996.2938,-209.4017 996.2938,-203.4017 996.2938,-203.4017 996.2938,-180.1983 996.2938,-180.1983 996.2938,-174.1983 1002.2938,-168.1983 1008.2938,-168.1983 1008.2938,-168.1983 1099.7062,-168.1983 1099.7062,-168.1983 1105.7062,-168.1983 1111.7062,-174.1983 1111.7062,-180.1983 1111.7062,-180.1983 1111.7062,-203.4017 1111.7062,-203.4017 1111.7062,-209.4017 1105.7062,-215.4017 1099.7062,-215.4017"/>
<text text-anchor="middle" x="1054" y="-196" font-family="Inter, sans-serif" font-size="14.00" fill="#f0f9ff">Update State</text>
<text text-anchor="middle" x="1054" y="-179.2" font-family="Inter, sans-serif" font-size="14.00" fill="#f0f9ff">(State + dt*dU)</text>
</g>
<!-- fluxes&#45;&gt;update_state -->
<g id="edge7" class="edge">
<title>fluxes&#45;&gt;update_state</title>
<path fill="none" stroke="#94a3b8" stroke-width="2" d="M880.7852,-191.8C915.7848,-191.8 950.7845,-191.8 985.7842,-191.8"/>
<polygon fill="#94a3b8" stroke="#94a3b8" stroke-width="2" points="986.149,-195.3001 996.1489,-191.8 986.1489,-188.3001 986.149,-195.3001"/>
</g>
<!-- limiters -->
<g id="node10" class="node">
<title>limiters</title>
<path fill="#0369a1" stroke="#38bdf8" stroke-width="2" d="M1328.932,-215.4017C1328.932,-215.4017 1239.068,-215.4017 1239.068,-215.4017 1233.068,-215.4017 1227.068,-209.4017 1227.068,-203.4017 1227.068,-203.4017 1227.068,-180.1983 1227.068,-180.1983 1227.068,-174.1983 1233.068,-168.1983 1239.068,-168.1983 1239.068,-168.1983 1328.932,-168.1983 1328.932,-168.1983 1334.932,-168.1983 1340.932,-174.1983 1340.932,-180.1983 1340.932,-180.1983 1340.932,-203.4017 1340.932,-203.4017 1340.932,-209.4017 1334.932,-215.4017 1328.932,-215.4017"/>
<text text-anchor="middle" x="1284" y="-196" font-family="Inter, sans-serif" font-size="14.00" fill="#f0f9ff">Apply Limiters</text>
<text text-anchor="middle" x="1284" y="-179.2" font-family="Inter, sans-serif" font-size="14.00" fill="#f0f9ff">(positivity)</text>
</g>
<!-- update_state&#45;&gt;limiters -->
<g id="edge8" class="edge">
<title>update_state&#45;&gt;limiters</title>
<path fill="none" stroke="#94a3b8" stroke-width="2" d="M1111.9492,-191.8C1146.8156,-191.8 1181.6821,-191.8 1216.5485,-191.8"/>
<polygon fill="#94a3b8" stroke="#94a3b8" stroke-width="2" points="1216.8738,-195.3001 1226.8738,-191.8 1216.8737,-188.3001 1216.8738,-195.3001"/>
</g>
<!-- diag -->
<g id="node11" class="node">
<title>diag</title>
<path fill="#4338ca" stroke="#818cf8" stroke-width="2" d="M1593.0198,-215.4017C1593.0198,-215.4017 1468.9802,-215.4017 1468.9802,-215.4017 1462.9802,-215.4017 1456.9802,-209.4017 1456.9802,-203.4017 1456.9802,-203.4017 1456.9802,-180.1983 1456.9802,-180.1983 1456.9802,-174.1983 1462.9802,-168.1983 1468.9802,-168.1983 1468.9802,-168.1983 1593.0198,-168.1983 1593.0198,-168.1983 1599.0198,-168.1983 1605.0198,-174.1983 1605.0198,-180.1983 1605.0198,-180.1983 1605.0198,-203.4017 1605.0198,-203.4017 1605.0198,-209.4017 1599.0198,-215.4017 1593.0198,-215.4017"/>
<text text-anchor="middle" x="1531" y="-196" font-family="Inter, sans-serif" font-size="14.00" fill="#eef2ff">Update Diagnostics</text>
<text text-anchor="middle" x="1531" y="-179.2" font-family="Inter, sans-serif" font-size="14.00" fill="#eef2ff">(Diagnostics::update)</text>
</g>
<!-- limiters&#45;&gt;diag -->
<g id="edge9" class="edge">
<title>limiters&#45;&gt;diag</title>
<path fill="none" stroke="#94a3b8" stroke-width="2" d="M1341.4082,-191.8C1376.4591,-191.8 1411.51,-191.8 1446.5608,-191.8"/>
<polygon fill="#94a3b8" stroke="#94a3b8" stroke-width="2" points="1446.9407,-195.3001 1456.9407,-191.8 1446.9407,-188.3001 1446.9407,-195.3001"/>
</g>
<!-- output -->
<g id="node12" class="node">
<title>output</title>
<path fill="#4338ca" stroke="#818cf8" stroke-width="2" d="M1852.8906,-215.4017C1852.8906,-215.4017 1733.1094,-215.4017 1733.1094,-215.4017 1727.1094,-215.4017 1721.1094,-209.4017 1721.1094,-203.4017 1721.1094,-203.4017 1721.1094,-180.1983 1721.1094,-180.1983 1721.1094,-174.1983 1727.1094,-168.1983 1733.1094,-168.1983 1733.1094,-168.1983 1852.8906,-168.1983 1852.8906,-168.1983 1858.8906,-168.1983 1864.8906,-174.1983 1864.8906,-180.1983 1864.8906,-180.1983 1864.8906,-203.4017 1864.8906,-203.4017 1864.8906,-209.4017 1858.8906,-215.4017 1852.8906,-215.4017"/>
<text text-anchor="middle" x="1793" y="-196" font-family="Inter, sans-serif" font-size="14.00" fill="#eef2ff">Checkpoints &amp; Plots</text>
<text text-anchor="middle" x="1793" y="-179.2" font-family="Inter, sans-serif" font-size="14.00" fill="#eef2ff">(VTKWriter::write)</text>
</g>
<!-- diag&#45;&gt;output -->
<g id="edge10" class="edge">
<title>diag&#45;&gt;output</title>
<path fill="none" stroke="#94a3b8" stroke-width="2" d="M1605.1992,-191.8C1640.3641,-191.8 1675.529,-191.8 1710.6939,-191.8"/>
<polygon fill="#94a3b8" stroke="#94a3b8" stroke-width="2" points="1711.1075,-195.3001 1721.1075,-191.8 1711.1075,-188.3001 1711.1075,-195.3001"/>
</g>
<!-- output&#45;&gt;dt -->
<g id="edge11" class="edge">
<title>output&#45;&gt;dt</title>
<path fill="none" stroke="#94a3b8" stroke-width="2" stroke-dasharray="5,2" d="M1755.2529,-215.5278C1721.3308,-235.3611 1669.394,-262.1276 1620,-273.2 1473.0903,-306.1321 411.9819,-305.8081 265,-273.2 219.2057,-263.0405 171.1651,-239.6511 137.0288,-220.539"/>
<polygon fill="#94a3b8" stroke="#94a3b8" stroke-width="2" points="138.6448,-217.4316 128.222,-215.5303 135.1842,-223.5164 138.6448,-217.4316"/>
<text text-anchor="middle" x="942" y="-285.4" font-family="Inter, sans-serif" font-size="14.00" fill="#f8fafc"> t &lt; T_FINAL</text>
</g>
<!-- output&#45;&gt;finish -->
<g id="edge13" class="edge">
<title>output&#45;&gt;finish</title>
<path fill="none" stroke="#94a3b8" stroke-width="2" d="M1720.8749,-176.8204C1689.933,-170.8418 1653.3078,-164.3577 1620,-160 1071.0461,-88.1791 405.2627,-53.7595 173.9524,-43.3421"/>
<polygon fill="#94a3b8" stroke="#94a3b8" stroke-width="2" points="174.0727,-39.8441 163.9262,-42.8934 173.7597,-46.8371 174.0727,-39.8441"/>
<text text-anchor="middle" x="1539.4707" y="-133.4" font-family="Inter, sans-serif" font-size="14.00" fill="#f8fafc"> t &gt;= T_FINAL</text>
</g>
</g>
</svg>
